<mxfile host="app.diagrams.net" modified="2022-10-18T07:52:57.696Z" agent="5.0 (Windows NT 10.0; Win64; x64) AppleWebKit/537.36 (KHTML, like Gecko) Chrome/106.0.0.0 Safari/537.36" etag="OHu25pr9hG4L7fpGKd5N" version="20.4.1" type="github">
  <diagram name="模型1" id="Page-1">
    <mxGraphModel dx="3460" dy="1893" grid="1" gridSize="10" guides="1" tooltips="1" connect="1" arrows="1" fold="1" page="1" pageScale="1" pageWidth="827" pageHeight="1169" background="none" math="0" shadow="1">
      <root>
        <mxCell id="0" />
        <mxCell id="1" value="连接线" parent="0" />
        <mxCell id="2" value="&lt;div style=&quot;&quot;&gt;&lt;font style=&quot;color: rgb(0, 0, 0); direction: ltr; letter-spacing: 0px; line-height: 120%; opacity: 1;&quot;&gt;&lt;b style=&quot;&quot;&gt;&lt;font face=&quot;Times New Roman&quot; style=&quot;font-size: 70px;&quot;&gt;&lt;i style=&quot;&quot;&gt;Input Text&lt;/i&gt;&lt;/font&gt;&lt;br&gt;&lt;/b&gt;&lt;/font&gt;&lt;/div&gt;" style="verticalAlign=middle;align=center;vsdxID=3;fillColor=#FFFFFF;gradientColor=none;shape=stencil(xVTbDoIwDP2aPULmhgjPiv+x6IDFyUiZin/vsHiZSIzG6Fvbc9rubGsJnzelqCVhtLFgNvKg1rYkfEEYU1UpQVlnEZ4RPs8NyALMrlqjX4uO2Vlbs+8qtJjHw1nUJTF6xMCE0rO/RLZW1R07jUMWf5EuYOUwuJ4lTpENPT1Kw4hjqPULXApOe7cNRKuaAIwVVpkKwR7TAgoZuF5BrkXhQc1BynoQfipmpPOYktlAySTylAwv52dSxlo/JQ9+yMfc9+/oX2/9zksnvogpDZPEEzE6Yj8Q8mq8nXHbDLnSGhfLPf64SVwItxDPTg==);dashed=1;strokeWidth=3;points=[[1,0.5,0],[0.5,0.5,0],[0.5,0,0],[0.01,0.15,0],[0.99,0.15,0],[0.01,0.85,0],[0.99,0.85,0]];labelBackgroundColor=none;rounded=0;html=1;whiteSpace=wrap;textDirection=ltr;" parent="1" vertex="1">
          <mxGeometry x="799" y="750" width="1120" height="103" as="geometry" />
        </mxCell>
        <mxCell id="114" style="vsdxID=13;edgeStyle=none;dashed=1;startArrow=none;endArrow=none;startSize=5;endSize=5;spacingTop=0;spacingBottom=0;spacingLeft=0;spacingRight=0;verticalAlign=middle;html=1;labelBackgroundColor=#ffffff;rounded=0;" parent="1" edge="1">
          <mxGeometry relative="1" as="geometry">
            <Array as="points" />
            <mxPoint x="784" y="611" as="sourcePoint" />
            <mxPoint x="784" y="592" as="targetPoint" />
          </mxGeometry>
        </mxCell>
        <mxCell id="14" style="vsdxID=35;fillColor=#f27a7d;gradientColor=none;shape=stencil(vVRLDoIwED1Nl5BCXdA14j0aKdBYKRmq4O0tKSC/mhgJu/m8+bzJzCAS1wWrOApxrUHdeCNSXSByRmEoyoKD0EZCJEEkzhTwHNSjTK1esQ7ZSXf17DK0Ni7AXUiIX4Nq9YvFSlFOsHQ3LIOr8cHYg48DC4cR79Pe1M4zDBkj6gcDwmOtqD1QmmmhSuvv0ZJBzj1Tz8sky2euuuG8Wpk32SyLm/Yi6iZEfXpa8YnIjM9iQPgoKpt1HaT3QP4+GdeoDxiOa8X+WdvNOzhkZ79doBE+LyETUtqPMvUvX4gx2fdDkjc=);points=[[1,0.5,0],[0.5,0.5,0],[0.5,0,0],[0.03,0.03,0],[0.97,0.03,0],[0.03,0.97,0],[0.97,0.97,0]];labelBackgroundColor=none;rounded=0;html=1;whiteSpace=wrap;" parent="1" vertex="1">
          <mxGeometry x="721" y="966" width="1198" height="1100" as="geometry" />
        </mxCell>
        <mxCell id="15" value="&lt;div style=&quot;font-size: 1px&quot;&gt;&lt;font style=&quot;font-size:50.8px;font-family:SimSun;color:#000000;direction:ltr;letter-spacing:0px;line-height:120%;opacity:1&quot;&gt;&lt;b&gt;Transformer Encoder&lt;br/&gt;&lt;/b&gt;&lt;/font&gt;&lt;/div&gt;" style="verticalAlign=middle;align=center;vsdxID=36;fillColor=#d8d8d8;gradientColor=none;shape=stencil(nZBLDoAgDERP0z3SIyjew0SURgSD+Lu9kMZoXLhwN9O+tukAlrNpJg1SzDH4QW/URgNYgZTkjA4UkwJUgGXng+6DX1zLfmoymdXo17xh5zmRJ6Q42BWCfc2oJfdAr+Yv+AP9Cb7OJ3H/2JG1HNGz/84klThPVCc=);points=[[1,0.5,0],[0.5,0,0],[0.5,0.5,0],[0.5,0.5,0]];labelBackgroundColor=none;rounded=0;html=1;whiteSpace=wrap;" parent="1" vertex="1">
          <mxGeometry x="768" y="1015" width="1080" height="83" as="geometry" />
        </mxCell>
        <mxCell id="16" value="&lt;div style=&quot;font-size: 1px&quot;&gt;&lt;font style=&quot;font-size:84.67px;font-family:SimSun;color:#000000;direction:ltr;letter-spacing:0px;line-height:120%;opacity:1&quot;&gt;&lt;b&gt;BERT&lt;br/&gt;&lt;/b&gt;&lt;/font&gt;&lt;/div&gt;" style="verticalAlign=middle;align=center;vsdxID=43;fillColor=none;gradientColor=none;shape=stencil(nZBLDoAgDERP0z3SIyjew0SURgSD+Lu9kMZoXLhwN9O+tukAlrNpJg1SzDH4QW/URgNYgZTkjA4UkwJUgGXng+6DX1zLfmoymdXo17xh5zmRJ6Q42BWCfc2oJfdAr+Yv+AP9Cb7OJ3H/2JG1HNGz/84klThPVCc=);strokeColor=none;points=[];labelBackgroundColor=none;rounded=0;html=1;whiteSpace=wrap;" parent="1" vertex="1">
          <mxGeometry x="460" y="1460" width="214" height="40" as="geometry" />
        </mxCell>
        <mxCell id="19" value="&lt;div style=&quot;font-size: 1px&quot;&gt;&lt;font style=&quot;font-size:50.8px;font-family:SimSun;color:#000000;direction:ltr;letter-spacing:0px;line-height:120%;opacity:1&quot;&gt;&lt;b&gt;Transformer Encoder&lt;br/&gt;&lt;/b&gt;&lt;/font&gt;&lt;/div&gt;" style="verticalAlign=middle;align=center;vsdxID=65;fillColor=#d8d8d8;gradientColor=none;shape=stencil(nZBLDoAgDERP0z3SIyjew0SURgSD+Lu9kMZoXLhwN9O+tukAlrNpJg1SzDH4QW/URgNYgZTkjA4UkwJUgGXng+6DX1zLfmoymdXo17xh5zmRJ6Q42BWCfc2oJfdAr+Yv+AP9Cb7OJ3H/2JG1HNGz/84klThPVCc=);points=[[1,0.5,0],[0.5,0,0],[0.5,0.5,0],[0.5,0.5,0]];labelBackgroundColor=none;rounded=0;html=1;whiteSpace=wrap;" parent="1" vertex="1">
          <mxGeometry x="768" y="1324" width="1080" height="83" as="geometry" />
        </mxCell>
        <mxCell id="20" value="&lt;div style=&quot;font-size: 1px&quot;&gt;&lt;font style=&quot;font-size:50.8px;font-family:SimSun;color:#000000;direction:ltr;letter-spacing:0px;line-height:120%;opacity:1&quot;&gt;&lt;b&gt;Transformer Encoder&lt;br/&gt;&lt;/b&gt;&lt;/font&gt;&lt;/div&gt;" style="verticalAlign=middle;align=center;vsdxID=66;fillColor=#d8d8d8;gradientColor=none;shape=stencil(nZBLDoAgDERP0z3SIyjew0SURgSD+Lu9kMZoXLhwN9O+tukAlrNpJg1SzDH4QW/URgNYgZTkjA4UkwJUgGXng+6DX1zLfmoymdXo17xh5zmRJ6Q42BWCfc2oJfdAr+Yv+AP9Cb7OJ3H/2JG1HNGz/84klThPVCc=);points=[[1,0.5,0],[0.5,0,0],[0.5,0.5,0],[0.5,0.5,0]];labelBackgroundColor=none;rounded=0;html=1;whiteSpace=wrap;" parent="1" vertex="1">
          <mxGeometry x="768" y="1784" width="1080" height="83" as="geometry" />
        </mxCell>
        <mxCell id="26" value="&lt;div style=&quot;font-size: 1px&quot;&gt;&lt;font style=&quot;font-size:42.33px;font-family:SimSun;color:#000000;direction:ltr;letter-spacing:0px;line-height:120%;opacity:1&quot;&gt;&lt;b&gt;N×&lt;br/&gt;&lt;/b&gt;&lt;/font&gt;&lt;/div&gt;" style="verticalAlign=middle;align=center;vsdxID=129;fillColor=none;gradientColor=none;shape=stencil(nZBLDoAgDERP0z3SIyjew0SURgSD+Lu9kMZoXLhwN9O+tukAlrNpJg1SzDH4QW/URgNYgZTkjA4UkwJUgGXng+6DX1zLfmoymdXo17xh5zmRJ6Q42BWCfc2oJfdAr+Yv+AP9Cb7OJ3H/2JG1HNGz/84klThPVCc=);strokeColor=none;points=[];labelBackgroundColor=none;rounded=0;html=1;whiteSpace=wrap;" parent="1" vertex="1">
          <mxGeometry x="1828" y="3408" width="214" height="28" as="geometry" />
        </mxCell>
        <mxCell id="118" style="vsdxID=254;edgeStyle=none;dashed=1;dashPattern=12.00 6.00;startArrow=none;endArrow=open;startSize=5;endSize=5;spacingTop=0;spacingBottom=0;spacingLeft=0;spacingRight=0;verticalAlign=middle;html=1;labelBackgroundColor=#ffffff;rounded=0;" parent="1" edge="1">
          <mxGeometry relative="1" as="geometry">
            <Array as="points" />
            <mxPoint x="920" y="1099" as="sourcePoint" />
            <mxPoint x="920" y="1324" as="targetPoint" />
          </mxGeometry>
        </mxCell>
        <mxCell id="119" style="vsdxID=255;edgeStyle=none;dashed=1;dashPattern=12.00 6.00;startArrow=none;endArrow=open;startSize=5;endSize=5;spacingTop=0;spacingBottom=0;spacingLeft=0;spacingRight=0;verticalAlign=middle;html=1;labelBackgroundColor=#ffffff;rounded=0;" parent="1" edge="1">
          <mxGeometry relative="1" as="geometry">
            <Array as="points" />
            <mxPoint x="1024" y="1099" as="sourcePoint" />
            <mxPoint x="1024" y="1324" as="targetPoint" />
          </mxGeometry>
        </mxCell>
        <mxCell id="121" style="vsdxID=257;edgeStyle=none;dashed=1;dashPattern=12.00 6.00;startArrow=none;endArrow=open;startSize=5;endSize=5;spacingTop=0;spacingBottom=0;spacingLeft=0;spacingRight=0;verticalAlign=middle;html=1;labelBackgroundColor=#ffffff;rounded=0;" parent="1" edge="1">
          <mxGeometry relative="1" as="geometry">
            <Array as="points" />
            <mxPoint x="824" y="1408" as="sourcePoint" />
            <mxPoint x="824" y="1784" as="targetPoint" />
          </mxGeometry>
        </mxCell>
        <mxCell id="120" style="vsdxID=256;edgeStyle=none;dashed=1;dashPattern=12.00 6.00;startArrow=none;endArrow=open;startSize=5;endSize=5;spacingTop=0;spacingBottom=0;spacingLeft=0;spacingRight=0;verticalAlign=middle;html=1;labelBackgroundColor=#ffffff;rounded=0;" parent="1" edge="1">
          <mxGeometry relative="1" as="geometry">
            <Array as="points" />
            <mxPoint x="1164" y="1099" as="sourcePoint" />
            <mxPoint x="1164" y="1324" as="targetPoint" />
          </mxGeometry>
        </mxCell>
        <mxCell id="122" style="vsdxID=258;edgeStyle=none;dashed=1;dashPattern=12.00 6.00;startArrow=none;endArrow=open;startSize=5;endSize=5;spacingTop=0;spacingBottom=0;spacingLeft=0;spacingRight=0;verticalAlign=middle;html=1;labelBackgroundColor=#ffffff;rounded=0;" parent="1" edge="1">
          <mxGeometry relative="1" as="geometry">
            <Array as="points" />
            <mxPoint x="920" y="1408" as="sourcePoint" />
            <mxPoint x="920" y="1784" as="targetPoint" />
          </mxGeometry>
        </mxCell>
        <mxCell id="123" style="vsdxID=259;edgeStyle=none;dashed=1;dashPattern=12.00 6.00;startArrow=none;endArrow=open;startSize=5;endSize=5;spacingTop=0;spacingBottom=0;spacingLeft=0;spacingRight=0;verticalAlign=middle;html=1;labelBackgroundColor=#ffffff;rounded=0;" parent="1" edge="1">
          <mxGeometry relative="1" as="geometry">
            <Array as="points" />
            <mxPoint x="1024" y="1409" as="sourcePoint" />
            <mxPoint x="1024" y="1784" as="targetPoint" />
          </mxGeometry>
        </mxCell>
        <mxCell id="124" style="vsdxID=260;edgeStyle=none;dashed=1;dashPattern=12.00 6.00;startArrow=none;endArrow=open;startSize=5;endSize=5;spacingTop=0;spacingBottom=0;spacingLeft=0;spacingRight=0;verticalAlign=middle;html=1;labelBackgroundColor=#ffffff;rounded=0;" parent="1" edge="1">
          <mxGeometry relative="1" as="geometry">
            <Array as="points" />
            <mxPoint x="1168" y="1409" as="sourcePoint" />
            <mxPoint x="1168" y="1784" as="targetPoint" />
          </mxGeometry>
        </mxCell>
        <mxCell id="131" style="vsdxID=267;edgeStyle=none;dashed=1;dashPattern=12.00 6.00;startArrow=none;endArrow=open;startSize=5;endSize=5;spacingTop=0;spacingBottom=0;spacingLeft=0;spacingRight=0;verticalAlign=middle;html=1;labelBackgroundColor=#ffffff;rounded=0;" parent="1" edge="1">
          <mxGeometry relative="1" as="geometry">
            <Array as="points" />
            <mxPoint x="1704" y="1865" as="sourcePoint" />
            <mxPoint x="1704" y="2128" as="targetPoint" />
          </mxGeometry>
        </mxCell>
        <mxCell id="103" value="&lt;div style=&quot;font-size: 1px&quot;&gt;&lt;font style=&quot;font-size:67.73px;font-family:SimSun;color:#000000;direction:ltr;letter-spacing:0px;line-height:120%;opacity:1&quot;&gt;&lt;b&gt;...&lt;br/&gt;&lt;/b&gt;&lt;/font&gt;&lt;/div&gt;" style="verticalAlign=middle;align=center;vsdxID=270;rotation=90;fillColor=none;gradientColor=none;shape=stencil(nZBLDoAgDERP0z3SIyjew0SURgSD+Lu9kMZoXLhwN9O+tukAlrNpJg1SzDH4QW/URgNYgZTkjA4UkwJUgGXng+6DX1zLfmoymdXo17xh5zmRJ6Q42BWCfc2oJfdAr+Yv+AP9Cb7OJ3H/2JG1HNGz/84klThPVCc=);strokeColor=none;points=[];labelBackgroundColor=none;rounded=0;html=1;whiteSpace=wrap;" parent="1" vertex="1">
          <mxGeometry x="1246" y="1662" width="200" height="60" as="geometry" />
        </mxCell>
        <mxCell id="107" parent="1" vertex="1">
          <mxGeometry x="1207" y="970" as="geometry" />
        </mxCell>
        <mxCell id="109" parent="1" vertex="1">
          <mxGeometry x="1461" y="970" as="geometry" />
        </mxCell>
        <mxCell id="111" parent="1" vertex="1">
          <mxGeometry x="1721" y="970" as="geometry" />
        </mxCell>
        <mxCell id="YzsYslSZHZorn_R58o8r-138" value="" style="group" parent="1" vertex="1" connectable="0">
          <mxGeometry x="3159.14" y="1160" width="309.1" height="1160" as="geometry" />
        </mxCell>
        <mxCell id="YzsYslSZHZorn_R58o8r-136" value="" style="rounded=1;whiteSpace=wrap;html=1;fillColor=#fad7ac;strokeColor=#b46504;" parent="YzsYslSZHZorn_R58o8r-138" vertex="1">
          <mxGeometry y="-272.3478260869565" width="120" height="1432.3478260869563" as="geometry" />
        </mxCell>
        <mxCell id="YzsYslSZHZorn_R58o8r-137" value="&lt;span style=&quot;font-size: 75px;&quot;&gt;&lt;font style=&quot;font-size: 75px;&quot;&gt;BiLSTM&lt;/font&gt;&lt;/span&gt;" style="text;html=1;strokeColor=none;fillColor=none;align=center;verticalAlign=middle;whiteSpace=wrap;rounded=0;fontSize=75;rotation=90;fontStyle=1" parent="YzsYslSZHZorn_R58o8r-138" vertex="1">
          <mxGeometry x="-180.14" y="414.95721739130425" width="489.24" height="24.00695652173913" as="geometry" />
        </mxCell>
        <mxCell id="p7V_d1KcG1WyrkhYZJlb-138" style="edgeStyle=orthogonalEdgeStyle;rounded=0;orthogonalLoop=1;jettySize=auto;html=1;exitX=0.5;exitY=1;exitDx=0;exitDy=0;entryX=0.5;entryY=0;entryDx=0;entryDy=0;" edge="1" parent="YzsYslSZHZorn_R58o8r-138" source="YzsYslSZHZorn_R58o8r-137" target="YzsYslSZHZorn_R58o8r-137">
          <mxGeometry relative="1" as="geometry" />
        </mxCell>
        <mxCell id="YzsYslSZHZorn_R58o8r-153" value="" style="shape=table;startSize=0;container=1;collapsible=0;childLayout=tableLayout;fontSize=70;" parent="1" vertex="1">
          <mxGeometry x="730" y="1147.5" width="176" height="41" as="geometry" />
        </mxCell>
        <mxCell id="YzsYslSZHZorn_R58o8r-154" value="" style="shape=tableRow;horizontal=0;startSize=0;swimlaneHead=0;swimlaneBody=0;top=0;left=0;bottom=0;right=0;collapsible=0;dropTarget=0;fillColor=none;points=[[0,0.5],[1,0.5]];portConstraint=eastwest;fontSize=70;" parent="YzsYslSZHZorn_R58o8r-153" vertex="1">
          <mxGeometry width="176" height="41" as="geometry" />
        </mxCell>
        <mxCell id="YzsYslSZHZorn_R58o8r-155" value="" style="shape=partialRectangle;html=1;whiteSpace=wrap;connectable=0;overflow=hidden;fillColor=none;top=0;left=0;bottom=0;right=0;pointerEvents=1;fontSize=70;" parent="YzsYslSZHZorn_R58o8r-154" vertex="1">
          <mxGeometry width="44" height="41" as="geometry">
            <mxRectangle width="44" height="41" as="alternateBounds" />
          </mxGeometry>
        </mxCell>
        <mxCell id="YzsYslSZHZorn_R58o8r-156" value="" style="shape=partialRectangle;html=1;whiteSpace=wrap;connectable=0;overflow=hidden;fillColor=none;top=0;left=0;bottom=0;right=0;pointerEvents=1;fontSize=70;" parent="YzsYslSZHZorn_R58o8r-154" vertex="1">
          <mxGeometry x="44" width="44" height="41" as="geometry">
            <mxRectangle width="44" height="41" as="alternateBounds" />
          </mxGeometry>
        </mxCell>
        <mxCell id="YzsYslSZHZorn_R58o8r-157" value="" style="shape=partialRectangle;html=1;whiteSpace=wrap;connectable=0;overflow=hidden;fillColor=none;top=0;left=0;bottom=0;right=0;pointerEvents=1;fontSize=70;" parent="YzsYslSZHZorn_R58o8r-154" vertex="1">
          <mxGeometry x="88" width="44" height="41" as="geometry">
            <mxRectangle width="44" height="41" as="alternateBounds" />
          </mxGeometry>
        </mxCell>
        <mxCell id="YzsYslSZHZorn_R58o8r-158" value="" style="shape=partialRectangle;html=1;whiteSpace=wrap;connectable=0;overflow=hidden;fillColor=none;top=0;left=0;bottom=0;right=0;pointerEvents=1;fontSize=70;" parent="YzsYslSZHZorn_R58o8r-154" vertex="1">
          <mxGeometry x="132" width="44" height="41" as="geometry">
            <mxRectangle width="44" height="41" as="alternateBounds" />
          </mxGeometry>
        </mxCell>
        <mxCell id="YzsYslSZHZorn_R58o8r-140" value="" style="group" parent="1" vertex="1" connectable="0">
          <mxGeometry x="3809" y="1291" width="110" height="710" as="geometry" />
        </mxCell>
        <mxCell id="YzsYslSZHZorn_R58o8r-135" value="" style="rounded=1;whiteSpace=wrap;html=1;fillColor=#fad7ac;strokeColor=#b46504;" parent="YzsYslSZHZorn_R58o8r-140" vertex="1">
          <mxGeometry x="10" y="-37.63" width="110" height="710" as="geometry" />
        </mxCell>
        <mxCell id="YzsYslSZHZorn_R58o8r-139" value="&lt;font style=&quot;font-size: 70px;&quot;&gt;&lt;b style=&quot;font-size: 70px;&quot;&gt;CRF&lt;/b&gt;&lt;/font&gt;" style="text;html=1;strokeColor=none;fillColor=none;align=center;verticalAlign=middle;whiteSpace=wrap;rounded=0;fontSize=70;rotation=90;" parent="YzsYslSZHZorn_R58o8r-140" vertex="1">
          <mxGeometry x="35" y="302.37" width="60" height="30" as="geometry" />
        </mxCell>
        <mxCell id="YzsYslSZHZorn_R58o8r-165" value="" style="shape=table;startSize=0;container=1;collapsible=0;childLayout=tableLayout;fontSize=70;" parent="1" vertex="1">
          <mxGeometry x="832" y="1250" width="176" height="41" as="geometry" />
        </mxCell>
        <mxCell id="YzsYslSZHZorn_R58o8r-166" value="" style="shape=tableRow;horizontal=0;startSize=0;swimlaneHead=0;swimlaneBody=0;top=0;left=0;bottom=0;right=0;collapsible=0;dropTarget=0;fillColor=none;points=[[0,0.5],[1,0.5]];portConstraint=eastwest;fontSize=70;" parent="YzsYslSZHZorn_R58o8r-165" vertex="1">
          <mxGeometry width="176" height="41" as="geometry" />
        </mxCell>
        <mxCell id="YzsYslSZHZorn_R58o8r-167" value="" style="shape=partialRectangle;html=1;whiteSpace=wrap;connectable=0;overflow=hidden;fillColor=none;top=0;left=0;bottom=0;right=0;pointerEvents=1;fontSize=70;" parent="YzsYslSZHZorn_R58o8r-166" vertex="1">
          <mxGeometry width="44" height="41" as="geometry">
            <mxRectangle width="44" height="41" as="alternateBounds" />
          </mxGeometry>
        </mxCell>
        <mxCell id="YzsYslSZHZorn_R58o8r-168" value="" style="shape=partialRectangle;html=1;whiteSpace=wrap;connectable=0;overflow=hidden;fillColor=none;top=0;left=0;bottom=0;right=0;pointerEvents=1;fontSize=70;" parent="YzsYslSZHZorn_R58o8r-166" vertex="1">
          <mxGeometry x="44" width="44" height="41" as="geometry">
            <mxRectangle width="44" height="41" as="alternateBounds" />
          </mxGeometry>
        </mxCell>
        <mxCell id="YzsYslSZHZorn_R58o8r-169" value="" style="shape=partialRectangle;html=1;whiteSpace=wrap;connectable=0;overflow=hidden;fillColor=none;top=0;left=0;bottom=0;right=0;pointerEvents=1;fontSize=70;" parent="YzsYslSZHZorn_R58o8r-166" vertex="1">
          <mxGeometry x="88" width="44" height="41" as="geometry">
            <mxRectangle width="44" height="41" as="alternateBounds" />
          </mxGeometry>
        </mxCell>
        <mxCell id="YzsYslSZHZorn_R58o8r-170" value="" style="shape=partialRectangle;html=1;whiteSpace=wrap;connectable=0;overflow=hidden;fillColor=none;top=0;left=0;bottom=0;right=0;pointerEvents=1;fontSize=70;" parent="YzsYslSZHZorn_R58o8r-166" vertex="1">
          <mxGeometry x="132" width="44" height="41" as="geometry">
            <mxRectangle width="44" height="41" as="alternateBounds" />
          </mxGeometry>
        </mxCell>
        <mxCell id="117" style="vsdxID=251;edgeStyle=none;dashed=1;dashPattern=12.00 6.00;startArrow=none;endArrow=open;startSize=5;endSize=5;spacingTop=0;spacingBottom=0;spacingLeft=0;spacingRight=0;verticalAlign=middle;html=1;labelBackgroundColor=#ffffff;rounded=0;" parent="1" edge="1">
          <mxGeometry relative="1" as="geometry">
            <Array as="points" />
            <mxPoint x="824" y="1099" as="sourcePoint" />
            <mxPoint x="824" y="1324" as="targetPoint" />
          </mxGeometry>
        </mxCell>
        <mxCell id="YzsYslSZHZorn_R58o8r-171" value="" style="shape=table;startSize=0;container=1;collapsible=0;childLayout=tableLayout;fontSize=70;" parent="1" vertex="1">
          <mxGeometry x="950" y="1147.5" width="176" height="41" as="geometry" />
        </mxCell>
        <mxCell id="YzsYslSZHZorn_R58o8r-172" value="" style="shape=tableRow;horizontal=0;startSize=0;swimlaneHead=0;swimlaneBody=0;top=0;left=0;bottom=0;right=0;collapsible=0;dropTarget=0;fillColor=none;points=[[0,0.5],[1,0.5]];portConstraint=eastwest;fontSize=70;" parent="YzsYslSZHZorn_R58o8r-171" vertex="1">
          <mxGeometry width="176" height="41" as="geometry" />
        </mxCell>
        <mxCell id="YzsYslSZHZorn_R58o8r-173" value="" style="shape=partialRectangle;html=1;whiteSpace=wrap;connectable=0;overflow=hidden;fillColor=none;top=0;left=0;bottom=0;right=0;pointerEvents=1;fontSize=70;" parent="YzsYslSZHZorn_R58o8r-172" vertex="1">
          <mxGeometry width="44" height="41" as="geometry">
            <mxRectangle width="44" height="41" as="alternateBounds" />
          </mxGeometry>
        </mxCell>
        <mxCell id="YzsYslSZHZorn_R58o8r-174" value="" style="shape=partialRectangle;html=1;whiteSpace=wrap;connectable=0;overflow=hidden;fillColor=none;top=0;left=0;bottom=0;right=0;pointerEvents=1;fontSize=70;" parent="YzsYslSZHZorn_R58o8r-172" vertex="1">
          <mxGeometry x="44" width="44" height="41" as="geometry">
            <mxRectangle width="44" height="41" as="alternateBounds" />
          </mxGeometry>
        </mxCell>
        <mxCell id="YzsYslSZHZorn_R58o8r-175" value="" style="shape=partialRectangle;html=1;whiteSpace=wrap;connectable=0;overflow=hidden;fillColor=none;top=0;left=0;bottom=0;right=0;pointerEvents=1;fontSize=70;" parent="YzsYslSZHZorn_R58o8r-172" vertex="1">
          <mxGeometry x="88" width="44" height="41" as="geometry">
            <mxRectangle width="44" height="41" as="alternateBounds" />
          </mxGeometry>
        </mxCell>
        <mxCell id="YzsYslSZHZorn_R58o8r-176" value="" style="shape=partialRectangle;html=1;whiteSpace=wrap;connectable=0;overflow=hidden;fillColor=none;top=0;left=0;bottom=0;right=0;pointerEvents=1;fontSize=70;" parent="YzsYslSZHZorn_R58o8r-172" vertex="1">
          <mxGeometry x="132" width="44" height="41" as="geometry">
            <mxRectangle width="44" height="41" as="alternateBounds" />
          </mxGeometry>
        </mxCell>
        <mxCell id="YzsYslSZHZorn_R58o8r-177" value="" style="shape=table;startSize=0;container=1;collapsible=0;childLayout=tableLayout;fontSize=70;" parent="1" vertex="1">
          <mxGeometry x="1100" y="1250" width="176" height="41" as="geometry" />
        </mxCell>
        <mxCell id="YzsYslSZHZorn_R58o8r-178" value="" style="shape=tableRow;horizontal=0;startSize=0;swimlaneHead=0;swimlaneBody=0;top=0;left=0;bottom=0;right=0;collapsible=0;dropTarget=0;fillColor=none;points=[[0,0.5],[1,0.5]];portConstraint=eastwest;fontSize=70;" parent="YzsYslSZHZorn_R58o8r-177" vertex="1">
          <mxGeometry width="176" height="41" as="geometry" />
        </mxCell>
        <mxCell id="YzsYslSZHZorn_R58o8r-179" value="" style="shape=partialRectangle;html=1;whiteSpace=wrap;connectable=0;overflow=hidden;fillColor=none;top=0;left=0;bottom=0;right=0;pointerEvents=1;fontSize=70;" parent="YzsYslSZHZorn_R58o8r-178" vertex="1">
          <mxGeometry width="44" height="41" as="geometry">
            <mxRectangle width="44" height="41" as="alternateBounds" />
          </mxGeometry>
        </mxCell>
        <mxCell id="YzsYslSZHZorn_R58o8r-180" value="" style="shape=partialRectangle;html=1;whiteSpace=wrap;connectable=0;overflow=hidden;fillColor=none;top=0;left=0;bottom=0;right=0;pointerEvents=1;fontSize=70;" parent="YzsYslSZHZorn_R58o8r-178" vertex="1">
          <mxGeometry x="44" width="44" height="41" as="geometry">
            <mxRectangle width="44" height="41" as="alternateBounds" />
          </mxGeometry>
        </mxCell>
        <mxCell id="YzsYslSZHZorn_R58o8r-181" value="" style="shape=partialRectangle;html=1;whiteSpace=wrap;connectable=0;overflow=hidden;fillColor=none;top=0;left=0;bottom=0;right=0;pointerEvents=1;fontSize=70;" parent="YzsYslSZHZorn_R58o8r-178" vertex="1">
          <mxGeometry x="88" width="44" height="41" as="geometry">
            <mxRectangle width="44" height="41" as="alternateBounds" />
          </mxGeometry>
        </mxCell>
        <mxCell id="YzsYslSZHZorn_R58o8r-182" value="" style="shape=partialRectangle;html=1;whiteSpace=wrap;connectable=0;overflow=hidden;fillColor=none;top=0;left=0;bottom=0;right=0;pointerEvents=1;fontSize=70;" parent="YzsYslSZHZorn_R58o8r-178" vertex="1">
          <mxGeometry x="132" width="44" height="41" as="geometry">
            <mxRectangle width="44" height="41" as="alternateBounds" />
          </mxGeometry>
        </mxCell>
        <mxCell id="YzsYslSZHZorn_R58o8r-297" style="vsdxID=254;edgeStyle=none;dashed=1;dashPattern=12.00 6.00;startArrow=none;endArrow=open;startSize=5;endSize=5;spacingTop=0;spacingBottom=0;spacingLeft=0;spacingRight=0;verticalAlign=middle;html=1;labelBackgroundColor=#ffffff;rounded=0;" parent="1" edge="1">
          <mxGeometry relative="1" as="geometry">
            <Array as="points" />
            <mxPoint x="1480" y="1099" as="sourcePoint" />
            <mxPoint x="1480" y="1324" as="targetPoint" />
          </mxGeometry>
        </mxCell>
        <mxCell id="YzsYslSZHZorn_R58o8r-298" style="vsdxID=255;edgeStyle=none;dashed=1;dashPattern=12.00 6.00;startArrow=none;endArrow=open;startSize=5;endSize=5;spacingTop=0;spacingBottom=0;spacingLeft=0;spacingRight=0;verticalAlign=middle;html=1;labelBackgroundColor=#ffffff;rounded=0;" parent="1" edge="1">
          <mxGeometry relative="1" as="geometry">
            <Array as="points" />
            <mxPoint x="1584" y="1099" as="sourcePoint" />
            <mxPoint x="1584" y="1324" as="targetPoint" />
          </mxGeometry>
        </mxCell>
        <mxCell id="YzsYslSZHZorn_R58o8r-299" style="vsdxID=256;edgeStyle=none;dashed=1;dashPattern=12.00 6.00;startArrow=none;endArrow=open;startSize=5;endSize=5;spacingTop=0;spacingBottom=0;spacingLeft=0;spacingRight=0;verticalAlign=middle;html=1;labelBackgroundColor=#ffffff;rounded=0;" parent="1" edge="1">
          <mxGeometry relative="1" as="geometry">
            <Array as="points" />
            <mxPoint x="1724" y="1099" as="sourcePoint" />
            <mxPoint x="1724" y="1324" as="targetPoint" />
          </mxGeometry>
        </mxCell>
        <mxCell id="YzsYslSZHZorn_R58o8r-300" value="" style="shape=table;startSize=0;container=1;collapsible=0;childLayout=tableLayout;fontSize=70;" parent="1" vertex="1">
          <mxGeometry x="1290" y="1147.5" width="176" height="41" as="geometry" />
        </mxCell>
        <mxCell id="YzsYslSZHZorn_R58o8r-301" value="" style="shape=tableRow;horizontal=0;startSize=0;swimlaneHead=0;swimlaneBody=0;top=0;left=0;bottom=0;right=0;collapsible=0;dropTarget=0;fillColor=none;points=[[0,0.5],[1,0.5]];portConstraint=eastwest;fontSize=70;" parent="YzsYslSZHZorn_R58o8r-300" vertex="1">
          <mxGeometry width="176" height="41" as="geometry" />
        </mxCell>
        <mxCell id="YzsYslSZHZorn_R58o8r-302" value="" style="shape=partialRectangle;html=1;whiteSpace=wrap;connectable=0;overflow=hidden;fillColor=none;top=0;left=0;bottom=0;right=0;pointerEvents=1;fontSize=70;" parent="YzsYslSZHZorn_R58o8r-301" vertex="1">
          <mxGeometry width="44" height="41" as="geometry">
            <mxRectangle width="44" height="41" as="alternateBounds" />
          </mxGeometry>
        </mxCell>
        <mxCell id="YzsYslSZHZorn_R58o8r-303" value="" style="shape=partialRectangle;html=1;whiteSpace=wrap;connectable=0;overflow=hidden;fillColor=none;top=0;left=0;bottom=0;right=0;pointerEvents=1;fontSize=70;" parent="YzsYslSZHZorn_R58o8r-301" vertex="1">
          <mxGeometry x="44" width="44" height="41" as="geometry">
            <mxRectangle width="44" height="41" as="alternateBounds" />
          </mxGeometry>
        </mxCell>
        <mxCell id="YzsYslSZHZorn_R58o8r-304" value="" style="shape=partialRectangle;html=1;whiteSpace=wrap;connectable=0;overflow=hidden;fillColor=none;top=0;left=0;bottom=0;right=0;pointerEvents=1;fontSize=70;" parent="YzsYslSZHZorn_R58o8r-301" vertex="1">
          <mxGeometry x="88" width="44" height="41" as="geometry">
            <mxRectangle width="44" height="41" as="alternateBounds" />
          </mxGeometry>
        </mxCell>
        <mxCell id="YzsYslSZHZorn_R58o8r-305" value="" style="shape=partialRectangle;html=1;whiteSpace=wrap;connectable=0;overflow=hidden;fillColor=none;top=0;left=0;bottom=0;right=0;pointerEvents=1;fontSize=70;" parent="YzsYslSZHZorn_R58o8r-301" vertex="1">
          <mxGeometry x="132" width="44" height="41" as="geometry">
            <mxRectangle width="44" height="41" as="alternateBounds" />
          </mxGeometry>
        </mxCell>
        <mxCell id="YzsYslSZHZorn_R58o8r-306" value="" style="shape=table;startSize=0;container=1;collapsible=0;childLayout=tableLayout;fontSize=70;" parent="1" vertex="1">
          <mxGeometry x="1392" y="1250" width="176" height="41" as="geometry" />
        </mxCell>
        <mxCell id="YzsYslSZHZorn_R58o8r-307" value="" style="shape=tableRow;horizontal=0;startSize=0;swimlaneHead=0;swimlaneBody=0;top=0;left=0;bottom=0;right=0;collapsible=0;dropTarget=0;fillColor=none;points=[[0,0.5],[1,0.5]];portConstraint=eastwest;fontSize=70;" parent="YzsYslSZHZorn_R58o8r-306" vertex="1">
          <mxGeometry width="176" height="41" as="geometry" />
        </mxCell>
        <mxCell id="YzsYslSZHZorn_R58o8r-308" value="" style="shape=partialRectangle;html=1;whiteSpace=wrap;connectable=0;overflow=hidden;fillColor=none;top=0;left=0;bottom=0;right=0;pointerEvents=1;fontSize=70;" parent="YzsYslSZHZorn_R58o8r-307" vertex="1">
          <mxGeometry width="44" height="41" as="geometry">
            <mxRectangle width="44" height="41" as="alternateBounds" />
          </mxGeometry>
        </mxCell>
        <mxCell id="YzsYslSZHZorn_R58o8r-309" value="" style="shape=partialRectangle;html=1;whiteSpace=wrap;connectable=0;overflow=hidden;fillColor=none;top=0;left=0;bottom=0;right=0;pointerEvents=1;fontSize=70;" parent="YzsYslSZHZorn_R58o8r-307" vertex="1">
          <mxGeometry x="44" width="44" height="41" as="geometry">
            <mxRectangle width="44" height="41" as="alternateBounds" />
          </mxGeometry>
        </mxCell>
        <mxCell id="YzsYslSZHZorn_R58o8r-310" value="" style="shape=partialRectangle;html=1;whiteSpace=wrap;connectable=0;overflow=hidden;fillColor=none;top=0;left=0;bottom=0;right=0;pointerEvents=1;fontSize=70;" parent="YzsYslSZHZorn_R58o8r-307" vertex="1">
          <mxGeometry x="88" width="44" height="41" as="geometry">
            <mxRectangle width="44" height="41" as="alternateBounds" />
          </mxGeometry>
        </mxCell>
        <mxCell id="YzsYslSZHZorn_R58o8r-311" value="" style="shape=partialRectangle;html=1;whiteSpace=wrap;connectable=0;overflow=hidden;fillColor=none;top=0;left=0;bottom=0;right=0;pointerEvents=1;fontSize=70;" parent="YzsYslSZHZorn_R58o8r-307" vertex="1">
          <mxGeometry x="132" width="44" height="41" as="geometry">
            <mxRectangle width="44" height="41" as="alternateBounds" />
          </mxGeometry>
        </mxCell>
        <mxCell id="YzsYslSZHZorn_R58o8r-312" style="vsdxID=251;edgeStyle=none;dashed=1;dashPattern=12.00 6.00;startArrow=none;endArrow=open;startSize=5;endSize=5;spacingTop=0;spacingBottom=0;spacingLeft=0;spacingRight=0;verticalAlign=middle;html=1;labelBackgroundColor=#ffffff;rounded=0;" parent="1" edge="1">
          <mxGeometry relative="1" as="geometry">
            <Array as="points" />
            <mxPoint x="1384" y="1099" as="sourcePoint" />
            <mxPoint x="1384" y="1324" as="targetPoint" />
          </mxGeometry>
        </mxCell>
        <mxCell id="YzsYslSZHZorn_R58o8r-313" value="" style="shape=table;startSize=0;container=1;collapsible=0;childLayout=tableLayout;fontSize=70;" parent="1" vertex="1">
          <mxGeometry x="1510" y="1147.5" width="176" height="41" as="geometry" />
        </mxCell>
        <mxCell id="YzsYslSZHZorn_R58o8r-314" value="" style="shape=tableRow;horizontal=0;startSize=0;swimlaneHead=0;swimlaneBody=0;top=0;left=0;bottom=0;right=0;collapsible=0;dropTarget=0;fillColor=none;points=[[0,0.5],[1,0.5]];portConstraint=eastwest;fontSize=70;" parent="YzsYslSZHZorn_R58o8r-313" vertex="1">
          <mxGeometry width="176" height="41" as="geometry" />
        </mxCell>
        <mxCell id="YzsYslSZHZorn_R58o8r-315" value="" style="shape=partialRectangle;html=1;whiteSpace=wrap;connectable=0;overflow=hidden;fillColor=none;top=0;left=0;bottom=0;right=0;pointerEvents=1;fontSize=70;" parent="YzsYslSZHZorn_R58o8r-314" vertex="1">
          <mxGeometry width="44" height="41" as="geometry">
            <mxRectangle width="44" height="41" as="alternateBounds" />
          </mxGeometry>
        </mxCell>
        <mxCell id="YzsYslSZHZorn_R58o8r-316" value="" style="shape=partialRectangle;html=1;whiteSpace=wrap;connectable=0;overflow=hidden;fillColor=none;top=0;left=0;bottom=0;right=0;pointerEvents=1;fontSize=70;" parent="YzsYslSZHZorn_R58o8r-314" vertex="1">
          <mxGeometry x="44" width="44" height="41" as="geometry">
            <mxRectangle width="44" height="41" as="alternateBounds" />
          </mxGeometry>
        </mxCell>
        <mxCell id="YzsYslSZHZorn_R58o8r-317" value="" style="shape=partialRectangle;html=1;whiteSpace=wrap;connectable=0;overflow=hidden;fillColor=none;top=0;left=0;bottom=0;right=0;pointerEvents=1;fontSize=70;" parent="YzsYslSZHZorn_R58o8r-314" vertex="1">
          <mxGeometry x="88" width="44" height="41" as="geometry">
            <mxRectangle width="44" height="41" as="alternateBounds" />
          </mxGeometry>
        </mxCell>
        <mxCell id="YzsYslSZHZorn_R58o8r-318" value="" style="shape=partialRectangle;html=1;whiteSpace=wrap;connectable=0;overflow=hidden;fillColor=none;top=0;left=0;bottom=0;right=0;pointerEvents=1;fontSize=70;" parent="YzsYslSZHZorn_R58o8r-314" vertex="1">
          <mxGeometry x="132" width="44" height="41" as="geometry">
            <mxRectangle width="44" height="41" as="alternateBounds" />
          </mxGeometry>
        </mxCell>
        <mxCell id="YzsYslSZHZorn_R58o8r-319" value="" style="shape=table;startSize=0;container=1;collapsible=0;childLayout=tableLayout;fontSize=70;" parent="1" vertex="1">
          <mxGeometry x="1660" y="1250" width="176" height="41" as="geometry" />
        </mxCell>
        <mxCell id="YzsYslSZHZorn_R58o8r-320" value="" style="shape=tableRow;horizontal=0;startSize=0;swimlaneHead=0;swimlaneBody=0;top=0;left=0;bottom=0;right=0;collapsible=0;dropTarget=0;fillColor=none;points=[[0,0.5],[1,0.5]];portConstraint=eastwest;fontSize=70;" parent="YzsYslSZHZorn_R58o8r-319" vertex="1">
          <mxGeometry width="176" height="41" as="geometry" />
        </mxCell>
        <mxCell id="YzsYslSZHZorn_R58o8r-321" value="" style="shape=partialRectangle;html=1;whiteSpace=wrap;connectable=0;overflow=hidden;fillColor=none;top=0;left=0;bottom=0;right=0;pointerEvents=1;fontSize=70;" parent="YzsYslSZHZorn_R58o8r-320" vertex="1">
          <mxGeometry width="44" height="41" as="geometry">
            <mxRectangle width="44" height="41" as="alternateBounds" />
          </mxGeometry>
        </mxCell>
        <mxCell id="YzsYslSZHZorn_R58o8r-322" value="" style="shape=partialRectangle;html=1;whiteSpace=wrap;connectable=0;overflow=hidden;fillColor=none;top=0;left=0;bottom=0;right=0;pointerEvents=1;fontSize=70;" parent="YzsYslSZHZorn_R58o8r-320" vertex="1">
          <mxGeometry x="44" width="44" height="41" as="geometry">
            <mxRectangle width="44" height="41" as="alternateBounds" />
          </mxGeometry>
        </mxCell>
        <mxCell id="YzsYslSZHZorn_R58o8r-323" value="" style="shape=partialRectangle;html=1;whiteSpace=wrap;connectable=0;overflow=hidden;fillColor=none;top=0;left=0;bottom=0;right=0;pointerEvents=1;fontSize=70;" parent="YzsYslSZHZorn_R58o8r-320" vertex="1">
          <mxGeometry x="88" width="44" height="41" as="geometry">
            <mxRectangle width="44" height="41" as="alternateBounds" />
          </mxGeometry>
        </mxCell>
        <mxCell id="YzsYslSZHZorn_R58o8r-324" value="" style="shape=partialRectangle;html=1;whiteSpace=wrap;connectable=0;overflow=hidden;fillColor=none;top=0;left=0;bottom=0;right=0;pointerEvents=1;fontSize=70;" parent="YzsYslSZHZorn_R58o8r-320" vertex="1">
          <mxGeometry x="132" width="44" height="41" as="geometry">
            <mxRectangle width="44" height="41" as="alternateBounds" />
          </mxGeometry>
        </mxCell>
        <mxCell id="YzsYslSZHZorn_R58o8r-336" style="vsdxID=258;edgeStyle=none;dashed=1;dashPattern=12.00 6.00;startArrow=none;endArrow=open;startSize=5;endSize=5;spacingTop=0;spacingBottom=0;spacingLeft=0;spacingRight=0;verticalAlign=middle;html=1;labelBackgroundColor=#ffffff;rounded=0;" parent="1" edge="1">
          <mxGeometry relative="1" as="geometry">
            <Array as="points" />
            <mxPoint x="1502" y="1407" as="sourcePoint" />
            <mxPoint x="1502" y="1783" as="targetPoint" />
          </mxGeometry>
        </mxCell>
        <mxCell id="YzsYslSZHZorn_R58o8r-335" style="vsdxID=257;edgeStyle=none;dashed=1;dashPattern=12.00 6.00;startArrow=none;endArrow=open;startSize=5;endSize=5;spacingTop=0;spacingBottom=0;spacingLeft=0;spacingRight=0;verticalAlign=middle;html=1;labelBackgroundColor=#ffffff;rounded=0;" parent="1" edge="1">
          <mxGeometry relative="1" as="geometry">
            <Array as="points" />
            <mxPoint x="1406" y="1407" as="sourcePoint" />
            <mxPoint x="1406" y="1783" as="targetPoint" />
          </mxGeometry>
        </mxCell>
        <mxCell id="YzsYslSZHZorn_R58o8r-337" style="vsdxID=259;edgeStyle=none;dashed=1;dashPattern=12.00 6.00;startArrow=none;endArrow=open;startSize=5;endSize=5;spacingTop=0;spacingBottom=0;spacingLeft=0;spacingRight=0;verticalAlign=middle;html=1;labelBackgroundColor=#ffffff;rounded=0;" parent="1" edge="1">
          <mxGeometry relative="1" as="geometry">
            <Array as="points" />
            <mxPoint x="1606" y="1408" as="sourcePoint" />
            <mxPoint x="1606" y="1783" as="targetPoint" />
          </mxGeometry>
        </mxCell>
        <mxCell id="YzsYslSZHZorn_R58o8r-339" value="" style="shape=table;startSize=0;container=1;collapsible=0;childLayout=tableLayout;fontSize=70;" parent="1" vertex="1">
          <mxGeometry x="1310" y="1460" width="176" height="41" as="geometry" />
        </mxCell>
        <mxCell id="YzsYslSZHZorn_R58o8r-340" value="" style="shape=tableRow;horizontal=0;startSize=0;swimlaneHead=0;swimlaneBody=0;top=0;left=0;bottom=0;right=0;collapsible=0;dropTarget=0;fillColor=none;points=[[0,0.5],[1,0.5]];portConstraint=eastwest;fontSize=70;" parent="YzsYslSZHZorn_R58o8r-339" vertex="1">
          <mxGeometry width="176" height="41" as="geometry" />
        </mxCell>
        <mxCell id="YzsYslSZHZorn_R58o8r-341" value="" style="shape=partialRectangle;html=1;whiteSpace=wrap;connectable=0;overflow=hidden;fillColor=none;top=0;left=0;bottom=0;right=0;pointerEvents=1;fontSize=70;" parent="YzsYslSZHZorn_R58o8r-340" vertex="1">
          <mxGeometry width="44" height="41" as="geometry">
            <mxRectangle width="44" height="41" as="alternateBounds" />
          </mxGeometry>
        </mxCell>
        <mxCell id="YzsYslSZHZorn_R58o8r-342" value="" style="shape=partialRectangle;html=1;whiteSpace=wrap;connectable=0;overflow=hidden;fillColor=none;top=0;left=0;bottom=0;right=0;pointerEvents=1;fontSize=70;" parent="YzsYslSZHZorn_R58o8r-340" vertex="1">
          <mxGeometry x="44" width="44" height="41" as="geometry">
            <mxRectangle width="44" height="41" as="alternateBounds" />
          </mxGeometry>
        </mxCell>
        <mxCell id="YzsYslSZHZorn_R58o8r-343" value="" style="shape=partialRectangle;html=1;whiteSpace=wrap;connectable=0;overflow=hidden;fillColor=none;top=0;left=0;bottom=0;right=0;pointerEvents=1;fontSize=70;" parent="YzsYslSZHZorn_R58o8r-340" vertex="1">
          <mxGeometry x="88" width="44" height="41" as="geometry">
            <mxRectangle width="44" height="41" as="alternateBounds" />
          </mxGeometry>
        </mxCell>
        <mxCell id="YzsYslSZHZorn_R58o8r-344" value="" style="shape=partialRectangle;html=1;whiteSpace=wrap;connectable=0;overflow=hidden;fillColor=none;top=0;left=0;bottom=0;right=0;pointerEvents=1;fontSize=70;" parent="YzsYslSZHZorn_R58o8r-340" vertex="1">
          <mxGeometry x="132" width="44" height="41" as="geometry">
            <mxRectangle width="44" height="41" as="alternateBounds" />
          </mxGeometry>
        </mxCell>
        <mxCell id="YzsYslSZHZorn_R58o8r-338" style="vsdxID=260;edgeStyle=none;dashed=1;dashPattern=12.00 6.00;startArrow=none;endArrow=open;startSize=5;endSize=5;spacingTop=0;spacingBottom=0;spacingLeft=0;spacingRight=0;verticalAlign=middle;html=1;labelBackgroundColor=#ffffff;rounded=0;" parent="1" edge="1">
          <mxGeometry relative="1" as="geometry">
            <Array as="points" />
            <mxPoint x="1750" y="1408" as="sourcePoint" />
            <mxPoint x="1750" y="1783" as="targetPoint" />
          </mxGeometry>
        </mxCell>
        <mxCell id="YzsYslSZHZorn_R58o8r-348" value="" style="shape=table;startSize=0;container=1;collapsible=0;childLayout=tableLayout;fontSize=70;" parent="1" vertex="1">
          <mxGeometry x="1420" y="1528" width="176" height="41" as="geometry" />
        </mxCell>
        <mxCell id="YzsYslSZHZorn_R58o8r-349" value="" style="shape=tableRow;horizontal=0;startSize=0;swimlaneHead=0;swimlaneBody=0;top=0;left=0;bottom=0;right=0;collapsible=0;dropTarget=0;fillColor=none;points=[[0,0.5],[1,0.5]];portConstraint=eastwest;fontSize=70;" parent="YzsYslSZHZorn_R58o8r-348" vertex="1">
          <mxGeometry width="176" height="41" as="geometry" />
        </mxCell>
        <mxCell id="YzsYslSZHZorn_R58o8r-350" value="" style="shape=partialRectangle;html=1;whiteSpace=wrap;connectable=0;overflow=hidden;fillColor=none;top=0;left=0;bottom=0;right=0;pointerEvents=1;fontSize=70;" parent="YzsYslSZHZorn_R58o8r-349" vertex="1">
          <mxGeometry width="44" height="41" as="geometry">
            <mxRectangle width="44" height="41" as="alternateBounds" />
          </mxGeometry>
        </mxCell>
        <mxCell id="YzsYslSZHZorn_R58o8r-351" value="" style="shape=partialRectangle;html=1;whiteSpace=wrap;connectable=0;overflow=hidden;fillColor=none;top=0;left=0;bottom=0;right=0;pointerEvents=1;fontSize=70;" parent="YzsYslSZHZorn_R58o8r-349" vertex="1">
          <mxGeometry x="44" width="44" height="41" as="geometry">
            <mxRectangle width="44" height="41" as="alternateBounds" />
          </mxGeometry>
        </mxCell>
        <mxCell id="YzsYslSZHZorn_R58o8r-352" value="" style="shape=partialRectangle;html=1;whiteSpace=wrap;connectable=0;overflow=hidden;fillColor=none;top=0;left=0;bottom=0;right=0;pointerEvents=1;fontSize=70;" parent="YzsYslSZHZorn_R58o8r-349" vertex="1">
          <mxGeometry x="88" width="44" height="41" as="geometry">
            <mxRectangle width="44" height="41" as="alternateBounds" />
          </mxGeometry>
        </mxCell>
        <mxCell id="YzsYslSZHZorn_R58o8r-353" value="" style="shape=partialRectangle;html=1;whiteSpace=wrap;connectable=0;overflow=hidden;fillColor=none;top=0;left=0;bottom=0;right=0;pointerEvents=1;fontSize=70;" parent="YzsYslSZHZorn_R58o8r-349" vertex="1">
          <mxGeometry x="132" width="44" height="41" as="geometry">
            <mxRectangle width="44" height="41" as="alternateBounds" />
          </mxGeometry>
        </mxCell>
        <mxCell id="YzsYslSZHZorn_R58o8r-354" value="" style="shape=table;startSize=0;container=1;collapsible=0;childLayout=tableLayout;fontSize=70;" parent="1" vertex="1">
          <mxGeometry x="1540" y="1460" width="176" height="41" as="geometry" />
        </mxCell>
        <mxCell id="YzsYslSZHZorn_R58o8r-355" value="" style="shape=tableRow;horizontal=0;startSize=0;swimlaneHead=0;swimlaneBody=0;top=0;left=0;bottom=0;right=0;collapsible=0;dropTarget=0;fillColor=none;points=[[0,0.5],[1,0.5]];portConstraint=eastwest;fontSize=70;" parent="YzsYslSZHZorn_R58o8r-354" vertex="1">
          <mxGeometry width="176" height="41" as="geometry" />
        </mxCell>
        <mxCell id="YzsYslSZHZorn_R58o8r-356" value="" style="shape=partialRectangle;html=1;whiteSpace=wrap;connectable=0;overflow=hidden;fillColor=none;top=0;left=0;bottom=0;right=0;pointerEvents=1;fontSize=70;" parent="YzsYslSZHZorn_R58o8r-355" vertex="1">
          <mxGeometry width="44" height="41" as="geometry">
            <mxRectangle width="44" height="41" as="alternateBounds" />
          </mxGeometry>
        </mxCell>
        <mxCell id="YzsYslSZHZorn_R58o8r-357" value="" style="shape=partialRectangle;html=1;whiteSpace=wrap;connectable=0;overflow=hidden;fillColor=none;top=0;left=0;bottom=0;right=0;pointerEvents=1;fontSize=70;" parent="YzsYslSZHZorn_R58o8r-355" vertex="1">
          <mxGeometry x="44" width="44" height="41" as="geometry">
            <mxRectangle width="44" height="41" as="alternateBounds" />
          </mxGeometry>
        </mxCell>
        <mxCell id="YzsYslSZHZorn_R58o8r-358" value="" style="shape=partialRectangle;html=1;whiteSpace=wrap;connectable=0;overflow=hidden;fillColor=none;top=0;left=0;bottom=0;right=0;pointerEvents=1;fontSize=70;" parent="YzsYslSZHZorn_R58o8r-355" vertex="1">
          <mxGeometry x="88" width="44" height="41" as="geometry">
            <mxRectangle width="44" height="41" as="alternateBounds" />
          </mxGeometry>
        </mxCell>
        <mxCell id="YzsYslSZHZorn_R58o8r-359" value="" style="shape=partialRectangle;html=1;whiteSpace=wrap;connectable=0;overflow=hidden;fillColor=none;top=0;left=0;bottom=0;right=0;pointerEvents=1;fontSize=70;" parent="YzsYslSZHZorn_R58o8r-355" vertex="1">
          <mxGeometry x="132" width="44" height="41" as="geometry">
            <mxRectangle width="44" height="41" as="alternateBounds" />
          </mxGeometry>
        </mxCell>
        <mxCell id="YzsYslSZHZorn_R58o8r-360" value="" style="shape=table;startSize=0;container=1;collapsible=0;childLayout=tableLayout;fontSize=70;" parent="1" vertex="1">
          <mxGeometry x="1672" y="1528" width="176" height="41" as="geometry" />
        </mxCell>
        <mxCell id="YzsYslSZHZorn_R58o8r-361" value="" style="shape=tableRow;horizontal=0;startSize=0;swimlaneHead=0;swimlaneBody=0;top=0;left=0;bottom=0;right=0;collapsible=0;dropTarget=0;fillColor=none;points=[[0,0.5],[1,0.5]];portConstraint=eastwest;fontSize=70;" parent="YzsYslSZHZorn_R58o8r-360" vertex="1">
          <mxGeometry width="176" height="41" as="geometry" />
        </mxCell>
        <mxCell id="YzsYslSZHZorn_R58o8r-362" value="" style="shape=partialRectangle;html=1;whiteSpace=wrap;connectable=0;overflow=hidden;fillColor=none;top=0;left=0;bottom=0;right=0;pointerEvents=1;fontSize=70;" parent="YzsYslSZHZorn_R58o8r-361" vertex="1">
          <mxGeometry width="44" height="41" as="geometry">
            <mxRectangle width="44" height="41" as="alternateBounds" />
          </mxGeometry>
        </mxCell>
        <mxCell id="YzsYslSZHZorn_R58o8r-363" value="" style="shape=partialRectangle;html=1;whiteSpace=wrap;connectable=0;overflow=hidden;fillColor=none;top=0;left=0;bottom=0;right=0;pointerEvents=1;fontSize=70;" parent="YzsYslSZHZorn_R58o8r-361" vertex="1">
          <mxGeometry x="44" width="44" height="41" as="geometry">
            <mxRectangle width="44" height="41" as="alternateBounds" />
          </mxGeometry>
        </mxCell>
        <mxCell id="YzsYslSZHZorn_R58o8r-364" value="" style="shape=partialRectangle;html=1;whiteSpace=wrap;connectable=0;overflow=hidden;fillColor=none;top=0;left=0;bottom=0;right=0;pointerEvents=1;fontSize=70;" parent="YzsYslSZHZorn_R58o8r-361" vertex="1">
          <mxGeometry x="88" width="44" height="41" as="geometry">
            <mxRectangle width="44" height="41" as="alternateBounds" />
          </mxGeometry>
        </mxCell>
        <mxCell id="YzsYslSZHZorn_R58o8r-365" value="" style="shape=partialRectangle;html=1;whiteSpace=wrap;connectable=0;overflow=hidden;fillColor=none;top=0;left=0;bottom=0;right=0;pointerEvents=1;fontSize=70;" parent="YzsYslSZHZorn_R58o8r-361" vertex="1">
          <mxGeometry x="132" width="44" height="41" as="geometry">
            <mxRectangle width="44" height="41" as="alternateBounds" />
          </mxGeometry>
        </mxCell>
        <mxCell id="YzsYslSZHZorn_R58o8r-366" value="" style="shape=table;startSize=0;container=1;collapsible=0;childLayout=tableLayout;fontSize=70;" parent="1" vertex="1">
          <mxGeometry x="730" y="1450" width="176" height="41" as="geometry" />
        </mxCell>
        <mxCell id="YzsYslSZHZorn_R58o8r-367" value="" style="shape=tableRow;horizontal=0;startSize=0;swimlaneHead=0;swimlaneBody=0;top=0;left=0;bottom=0;right=0;collapsible=0;dropTarget=0;fillColor=none;points=[[0,0.5],[1,0.5]];portConstraint=eastwest;fontSize=70;" parent="YzsYslSZHZorn_R58o8r-366" vertex="1">
          <mxGeometry width="176" height="41" as="geometry" />
        </mxCell>
        <mxCell id="YzsYslSZHZorn_R58o8r-368" value="" style="shape=partialRectangle;html=1;whiteSpace=wrap;connectable=0;overflow=hidden;fillColor=none;top=0;left=0;bottom=0;right=0;pointerEvents=1;fontSize=70;" parent="YzsYslSZHZorn_R58o8r-367" vertex="1">
          <mxGeometry width="44" height="41" as="geometry">
            <mxRectangle width="44" height="41" as="alternateBounds" />
          </mxGeometry>
        </mxCell>
        <mxCell id="YzsYslSZHZorn_R58o8r-369" value="" style="shape=partialRectangle;html=1;whiteSpace=wrap;connectable=0;overflow=hidden;fillColor=none;top=0;left=0;bottom=0;right=0;pointerEvents=1;fontSize=70;" parent="YzsYslSZHZorn_R58o8r-367" vertex="1">
          <mxGeometry x="44" width="44" height="41" as="geometry">
            <mxRectangle width="44" height="41" as="alternateBounds" />
          </mxGeometry>
        </mxCell>
        <mxCell id="YzsYslSZHZorn_R58o8r-370" value="" style="shape=partialRectangle;html=1;whiteSpace=wrap;connectable=0;overflow=hidden;fillColor=none;top=0;left=0;bottom=0;right=0;pointerEvents=1;fontSize=70;" parent="YzsYslSZHZorn_R58o8r-367" vertex="1">
          <mxGeometry x="88" width="44" height="41" as="geometry">
            <mxRectangle width="44" height="41" as="alternateBounds" />
          </mxGeometry>
        </mxCell>
        <mxCell id="YzsYslSZHZorn_R58o8r-371" value="" style="shape=partialRectangle;html=1;whiteSpace=wrap;connectable=0;overflow=hidden;fillColor=none;top=0;left=0;bottom=0;right=0;pointerEvents=1;fontSize=70;" parent="YzsYslSZHZorn_R58o8r-367" vertex="1">
          <mxGeometry x="132" width="44" height="41" as="geometry">
            <mxRectangle width="44" height="41" as="alternateBounds" />
          </mxGeometry>
        </mxCell>
        <mxCell id="YzsYslSZHZorn_R58o8r-372" value="" style="shape=table;startSize=0;container=1;collapsible=0;childLayout=tableLayout;fontSize=70;" parent="1" vertex="1">
          <mxGeometry x="832" y="1528" width="176" height="41" as="geometry" />
        </mxCell>
        <mxCell id="YzsYslSZHZorn_R58o8r-373" value="" style="shape=tableRow;horizontal=0;startSize=0;swimlaneHead=0;swimlaneBody=0;top=0;left=0;bottom=0;right=0;collapsible=0;dropTarget=0;fillColor=none;points=[[0,0.5],[1,0.5]];portConstraint=eastwest;fontSize=70;" parent="YzsYslSZHZorn_R58o8r-372" vertex="1">
          <mxGeometry width="176" height="41" as="geometry" />
        </mxCell>
        <mxCell id="YzsYslSZHZorn_R58o8r-374" value="" style="shape=partialRectangle;html=1;whiteSpace=wrap;connectable=0;overflow=hidden;fillColor=none;top=0;left=0;bottom=0;right=0;pointerEvents=1;fontSize=70;" parent="YzsYslSZHZorn_R58o8r-373" vertex="1">
          <mxGeometry width="44" height="41" as="geometry">
            <mxRectangle width="44" height="41" as="alternateBounds" />
          </mxGeometry>
        </mxCell>
        <mxCell id="YzsYslSZHZorn_R58o8r-375" value="" style="shape=partialRectangle;html=1;whiteSpace=wrap;connectable=0;overflow=hidden;fillColor=none;top=0;left=0;bottom=0;right=0;pointerEvents=1;fontSize=70;" parent="YzsYslSZHZorn_R58o8r-373" vertex="1">
          <mxGeometry x="44" width="44" height="41" as="geometry">
            <mxRectangle width="44" height="41" as="alternateBounds" />
          </mxGeometry>
        </mxCell>
        <mxCell id="YzsYslSZHZorn_R58o8r-376" value="" style="shape=partialRectangle;html=1;whiteSpace=wrap;connectable=0;overflow=hidden;fillColor=none;top=0;left=0;bottom=0;right=0;pointerEvents=1;fontSize=70;" parent="YzsYslSZHZorn_R58o8r-373" vertex="1">
          <mxGeometry x="88" width="44" height="41" as="geometry">
            <mxRectangle width="44" height="41" as="alternateBounds" />
          </mxGeometry>
        </mxCell>
        <mxCell id="YzsYslSZHZorn_R58o8r-377" value="" style="shape=partialRectangle;html=1;whiteSpace=wrap;connectable=0;overflow=hidden;fillColor=none;top=0;left=0;bottom=0;right=0;pointerEvents=1;fontSize=70;" parent="YzsYslSZHZorn_R58o8r-373" vertex="1">
          <mxGeometry x="132" width="44" height="41" as="geometry">
            <mxRectangle width="44" height="41" as="alternateBounds" />
          </mxGeometry>
        </mxCell>
        <mxCell id="YzsYslSZHZorn_R58o8r-378" value="" style="shape=table;startSize=0;container=1;collapsible=0;childLayout=tableLayout;fontSize=70;" parent="1" vertex="1">
          <mxGeometry x="950" y="1450" width="176" height="41" as="geometry" />
        </mxCell>
        <mxCell id="YzsYslSZHZorn_R58o8r-379" value="" style="shape=tableRow;horizontal=0;startSize=0;swimlaneHead=0;swimlaneBody=0;top=0;left=0;bottom=0;right=0;collapsible=0;dropTarget=0;fillColor=none;points=[[0,0.5],[1,0.5]];portConstraint=eastwest;fontSize=70;" parent="YzsYslSZHZorn_R58o8r-378" vertex="1">
          <mxGeometry width="176" height="41" as="geometry" />
        </mxCell>
        <mxCell id="YzsYslSZHZorn_R58o8r-380" value="" style="shape=partialRectangle;html=1;whiteSpace=wrap;connectable=0;overflow=hidden;fillColor=none;top=0;left=0;bottom=0;right=0;pointerEvents=1;fontSize=70;" parent="YzsYslSZHZorn_R58o8r-379" vertex="1">
          <mxGeometry width="44" height="41" as="geometry">
            <mxRectangle width="44" height="41" as="alternateBounds" />
          </mxGeometry>
        </mxCell>
        <mxCell id="YzsYslSZHZorn_R58o8r-381" value="" style="shape=partialRectangle;html=1;whiteSpace=wrap;connectable=0;overflow=hidden;fillColor=none;top=0;left=0;bottom=0;right=0;pointerEvents=1;fontSize=70;" parent="YzsYslSZHZorn_R58o8r-379" vertex="1">
          <mxGeometry x="44" width="44" height="41" as="geometry">
            <mxRectangle width="44" height="41" as="alternateBounds" />
          </mxGeometry>
        </mxCell>
        <mxCell id="YzsYslSZHZorn_R58o8r-382" value="" style="shape=partialRectangle;html=1;whiteSpace=wrap;connectable=0;overflow=hidden;fillColor=none;top=0;left=0;bottom=0;right=0;pointerEvents=1;fontSize=70;" parent="YzsYslSZHZorn_R58o8r-379" vertex="1">
          <mxGeometry x="88" width="44" height="41" as="geometry">
            <mxRectangle width="44" height="41" as="alternateBounds" />
          </mxGeometry>
        </mxCell>
        <mxCell id="YzsYslSZHZorn_R58o8r-383" value="" style="shape=partialRectangle;html=1;whiteSpace=wrap;connectable=0;overflow=hidden;fillColor=none;top=0;left=0;bottom=0;right=0;pointerEvents=1;fontSize=70;" parent="YzsYslSZHZorn_R58o8r-379" vertex="1">
          <mxGeometry x="132" width="44" height="41" as="geometry">
            <mxRectangle width="44" height="41" as="alternateBounds" />
          </mxGeometry>
        </mxCell>
        <mxCell id="YzsYslSZHZorn_R58o8r-384" value="" style="shape=table;startSize=0;container=1;collapsible=0;childLayout=tableLayout;fontSize=70;" parent="1" vertex="1">
          <mxGeometry x="1100" y="1528" width="176" height="41" as="geometry" />
        </mxCell>
        <mxCell id="YzsYslSZHZorn_R58o8r-385" value="" style="shape=tableRow;horizontal=0;startSize=0;swimlaneHead=0;swimlaneBody=0;top=0;left=0;bottom=0;right=0;collapsible=0;dropTarget=0;fillColor=none;points=[[0,0.5],[1,0.5]];portConstraint=eastwest;fontSize=70;" parent="YzsYslSZHZorn_R58o8r-384" vertex="1">
          <mxGeometry width="176" height="41" as="geometry" />
        </mxCell>
        <mxCell id="YzsYslSZHZorn_R58o8r-386" value="" style="shape=partialRectangle;html=1;whiteSpace=wrap;connectable=0;overflow=hidden;fillColor=none;top=0;left=0;bottom=0;right=0;pointerEvents=1;fontSize=70;" parent="YzsYslSZHZorn_R58o8r-385" vertex="1">
          <mxGeometry width="44" height="41" as="geometry">
            <mxRectangle width="44" height="41" as="alternateBounds" />
          </mxGeometry>
        </mxCell>
        <mxCell id="YzsYslSZHZorn_R58o8r-387" value="" style="shape=partialRectangle;html=1;whiteSpace=wrap;connectable=0;overflow=hidden;fillColor=none;top=0;left=0;bottom=0;right=0;pointerEvents=1;fontSize=70;" parent="YzsYslSZHZorn_R58o8r-385" vertex="1">
          <mxGeometry x="44" width="44" height="41" as="geometry">
            <mxRectangle width="44" height="41" as="alternateBounds" />
          </mxGeometry>
        </mxCell>
        <mxCell id="YzsYslSZHZorn_R58o8r-388" value="" style="shape=partialRectangle;html=1;whiteSpace=wrap;connectable=0;overflow=hidden;fillColor=none;top=0;left=0;bottom=0;right=0;pointerEvents=1;fontSize=70;" parent="YzsYslSZHZorn_R58o8r-385" vertex="1">
          <mxGeometry x="88" width="44" height="41" as="geometry">
            <mxRectangle width="44" height="41" as="alternateBounds" />
          </mxGeometry>
        </mxCell>
        <mxCell id="YzsYslSZHZorn_R58o8r-389" value="" style="shape=partialRectangle;html=1;whiteSpace=wrap;connectable=0;overflow=hidden;fillColor=none;top=0;left=0;bottom=0;right=0;pointerEvents=1;fontSize=70;" parent="YzsYslSZHZorn_R58o8r-385" vertex="1">
          <mxGeometry x="132" width="44" height="41" as="geometry">
            <mxRectangle width="44" height="41" as="alternateBounds" />
          </mxGeometry>
        </mxCell>
        <mxCell id="YzsYslSZHZorn_R58o8r-390" value="" style="shape=table;startSize=0;container=1;collapsible=0;childLayout=tableLayout;fontSize=70;" parent="1" vertex="1">
          <mxGeometry x="740" y="1910" width="176" height="41" as="geometry" />
        </mxCell>
        <mxCell id="YzsYslSZHZorn_R58o8r-391" value="" style="shape=tableRow;horizontal=0;startSize=0;swimlaneHead=0;swimlaneBody=0;top=0;left=0;bottom=0;right=0;collapsible=0;dropTarget=0;fillColor=none;points=[[0,0.5],[1,0.5]];portConstraint=eastwest;fontSize=70;" parent="YzsYslSZHZorn_R58o8r-390" vertex="1">
          <mxGeometry width="176" height="41" as="geometry" />
        </mxCell>
        <mxCell id="YzsYslSZHZorn_R58o8r-392" value="" style="shape=partialRectangle;html=1;whiteSpace=wrap;connectable=0;overflow=hidden;fillColor=none;top=0;left=0;bottom=0;right=0;pointerEvents=1;fontSize=70;" parent="YzsYslSZHZorn_R58o8r-391" vertex="1">
          <mxGeometry width="44" height="41" as="geometry">
            <mxRectangle width="44" height="41" as="alternateBounds" />
          </mxGeometry>
        </mxCell>
        <mxCell id="YzsYslSZHZorn_R58o8r-393" value="" style="shape=partialRectangle;html=1;whiteSpace=wrap;connectable=0;overflow=hidden;fillColor=none;top=0;left=0;bottom=0;right=0;pointerEvents=1;fontSize=70;" parent="YzsYslSZHZorn_R58o8r-391" vertex="1">
          <mxGeometry x="44" width="44" height="41" as="geometry">
            <mxRectangle width="44" height="41" as="alternateBounds" />
          </mxGeometry>
        </mxCell>
        <mxCell id="YzsYslSZHZorn_R58o8r-394" value="" style="shape=partialRectangle;html=1;whiteSpace=wrap;connectable=0;overflow=hidden;fillColor=none;top=0;left=0;bottom=0;right=0;pointerEvents=1;fontSize=70;" parent="YzsYslSZHZorn_R58o8r-391" vertex="1">
          <mxGeometry x="88" width="44" height="41" as="geometry">
            <mxRectangle width="44" height="41" as="alternateBounds" />
          </mxGeometry>
        </mxCell>
        <mxCell id="YzsYslSZHZorn_R58o8r-395" value="" style="shape=partialRectangle;html=1;whiteSpace=wrap;connectable=0;overflow=hidden;fillColor=none;top=0;left=0;bottom=0;right=0;pointerEvents=1;fontSize=70;" parent="YzsYslSZHZorn_R58o8r-391" vertex="1">
          <mxGeometry x="132" width="44" height="41" as="geometry">
            <mxRectangle width="44" height="41" as="alternateBounds" />
          </mxGeometry>
        </mxCell>
        <mxCell id="YzsYslSZHZorn_R58o8r-396" value="" style="shape=table;startSize=0;container=1;collapsible=0;childLayout=tableLayout;fontSize=70;" parent="1" vertex="1">
          <mxGeometry x="840" y="2014" width="176" height="41" as="geometry" />
        </mxCell>
        <mxCell id="YzsYslSZHZorn_R58o8r-397" value="" style="shape=tableRow;horizontal=0;startSize=0;swimlaneHead=0;swimlaneBody=0;top=0;left=0;bottom=0;right=0;collapsible=0;dropTarget=0;fillColor=none;points=[[0,0.5],[1,0.5]];portConstraint=eastwest;fontSize=70;" parent="YzsYslSZHZorn_R58o8r-396" vertex="1">
          <mxGeometry width="176" height="41" as="geometry" />
        </mxCell>
        <mxCell id="YzsYslSZHZorn_R58o8r-398" value="" style="shape=partialRectangle;html=1;whiteSpace=wrap;connectable=0;overflow=hidden;fillColor=none;top=0;left=0;bottom=0;right=0;pointerEvents=1;fontSize=70;" parent="YzsYslSZHZorn_R58o8r-397" vertex="1">
          <mxGeometry width="44" height="41" as="geometry">
            <mxRectangle width="44" height="41" as="alternateBounds" />
          </mxGeometry>
        </mxCell>
        <mxCell id="YzsYslSZHZorn_R58o8r-399" value="" style="shape=partialRectangle;html=1;whiteSpace=wrap;connectable=0;overflow=hidden;fillColor=none;top=0;left=0;bottom=0;right=0;pointerEvents=1;fontSize=70;" parent="YzsYslSZHZorn_R58o8r-397" vertex="1">
          <mxGeometry x="44" width="44" height="41" as="geometry">
            <mxRectangle width="44" height="41" as="alternateBounds" />
          </mxGeometry>
        </mxCell>
        <mxCell id="YzsYslSZHZorn_R58o8r-400" value="" style="shape=partialRectangle;html=1;whiteSpace=wrap;connectable=0;overflow=hidden;fillColor=none;top=0;left=0;bottom=0;right=0;pointerEvents=1;fontSize=70;" parent="YzsYslSZHZorn_R58o8r-397" vertex="1">
          <mxGeometry x="88" width="44" height="41" as="geometry">
            <mxRectangle width="44" height="41" as="alternateBounds" />
          </mxGeometry>
        </mxCell>
        <mxCell id="YzsYslSZHZorn_R58o8r-401" value="" style="shape=partialRectangle;html=1;whiteSpace=wrap;connectable=0;overflow=hidden;fillColor=none;top=0;left=0;bottom=0;right=0;pointerEvents=1;fontSize=70;" parent="YzsYslSZHZorn_R58o8r-397" vertex="1">
          <mxGeometry x="132" width="44" height="41" as="geometry">
            <mxRectangle width="44" height="41" as="alternateBounds" />
          </mxGeometry>
        </mxCell>
        <mxCell id="YzsYslSZHZorn_R58o8r-402" value="" style="shape=table;startSize=0;container=1;collapsible=0;childLayout=tableLayout;fontSize=70;" parent="1" vertex="1">
          <mxGeometry x="960" y="1910" width="176" height="41" as="geometry" />
        </mxCell>
        <mxCell id="YzsYslSZHZorn_R58o8r-403" value="" style="shape=tableRow;horizontal=0;startSize=0;swimlaneHead=0;swimlaneBody=0;top=0;left=0;bottom=0;right=0;collapsible=0;dropTarget=0;fillColor=none;points=[[0,0.5],[1,0.5]];portConstraint=eastwest;fontSize=70;" parent="YzsYslSZHZorn_R58o8r-402" vertex="1">
          <mxGeometry width="176" height="41" as="geometry" />
        </mxCell>
        <mxCell id="YzsYslSZHZorn_R58o8r-404" value="" style="shape=partialRectangle;html=1;whiteSpace=wrap;connectable=0;overflow=hidden;fillColor=none;top=0;left=0;bottom=0;right=0;pointerEvents=1;fontSize=70;" parent="YzsYslSZHZorn_R58o8r-403" vertex="1">
          <mxGeometry width="44" height="41" as="geometry">
            <mxRectangle width="44" height="41" as="alternateBounds" />
          </mxGeometry>
        </mxCell>
        <mxCell id="YzsYslSZHZorn_R58o8r-405" value="" style="shape=partialRectangle;html=1;whiteSpace=wrap;connectable=0;overflow=hidden;fillColor=none;top=0;left=0;bottom=0;right=0;pointerEvents=1;fontSize=70;" parent="YzsYslSZHZorn_R58o8r-403" vertex="1">
          <mxGeometry x="44" width="44" height="41" as="geometry">
            <mxRectangle width="44" height="41" as="alternateBounds" />
          </mxGeometry>
        </mxCell>
        <mxCell id="YzsYslSZHZorn_R58o8r-406" value="" style="shape=partialRectangle;html=1;whiteSpace=wrap;connectable=0;overflow=hidden;fillColor=none;top=0;left=0;bottom=0;right=0;pointerEvents=1;fontSize=70;" parent="YzsYslSZHZorn_R58o8r-403" vertex="1">
          <mxGeometry x="88" width="44" height="41" as="geometry">
            <mxRectangle width="44" height="41" as="alternateBounds" />
          </mxGeometry>
        </mxCell>
        <mxCell id="YzsYslSZHZorn_R58o8r-407" value="" style="shape=partialRectangle;html=1;whiteSpace=wrap;connectable=0;overflow=hidden;fillColor=none;top=0;left=0;bottom=0;right=0;pointerEvents=1;fontSize=70;" parent="YzsYslSZHZorn_R58o8r-403" vertex="1">
          <mxGeometry x="132" width="44" height="41" as="geometry">
            <mxRectangle width="44" height="41" as="alternateBounds" />
          </mxGeometry>
        </mxCell>
        <mxCell id="YzsYslSZHZorn_R58o8r-408" value="" style="shape=table;startSize=0;container=1;collapsible=0;childLayout=tableLayout;fontSize=70;" parent="1" vertex="1">
          <mxGeometry x="1050" y="2014" width="176" height="41" as="geometry" />
        </mxCell>
        <mxCell id="YzsYslSZHZorn_R58o8r-409" value="" style="shape=tableRow;horizontal=0;startSize=0;swimlaneHead=0;swimlaneBody=0;top=0;left=0;bottom=0;right=0;collapsible=0;dropTarget=0;fillColor=none;points=[[0,0.5],[1,0.5]];portConstraint=eastwest;fontSize=70;" parent="YzsYslSZHZorn_R58o8r-408" vertex="1">
          <mxGeometry width="176" height="41" as="geometry" />
        </mxCell>
        <mxCell id="YzsYslSZHZorn_R58o8r-410" value="" style="shape=partialRectangle;html=1;whiteSpace=wrap;connectable=0;overflow=hidden;fillColor=none;top=0;left=0;bottom=0;right=0;pointerEvents=1;fontSize=70;" parent="YzsYslSZHZorn_R58o8r-409" vertex="1">
          <mxGeometry width="44" height="41" as="geometry">
            <mxRectangle width="44" height="41" as="alternateBounds" />
          </mxGeometry>
        </mxCell>
        <mxCell id="YzsYslSZHZorn_R58o8r-411" value="" style="shape=partialRectangle;html=1;whiteSpace=wrap;connectable=0;overflow=hidden;fillColor=none;top=0;left=0;bottom=0;right=0;pointerEvents=1;fontSize=70;" parent="YzsYslSZHZorn_R58o8r-409" vertex="1">
          <mxGeometry x="44" width="44" height="41" as="geometry">
            <mxRectangle width="44" height="41" as="alternateBounds" />
          </mxGeometry>
        </mxCell>
        <mxCell id="YzsYslSZHZorn_R58o8r-412" value="" style="shape=partialRectangle;html=1;whiteSpace=wrap;connectable=0;overflow=hidden;fillColor=none;top=0;left=0;bottom=0;right=0;pointerEvents=1;fontSize=70;" parent="YzsYslSZHZorn_R58o8r-409" vertex="1">
          <mxGeometry x="88" width="44" height="41" as="geometry">
            <mxRectangle width="44" height="41" as="alternateBounds" />
          </mxGeometry>
        </mxCell>
        <mxCell id="YzsYslSZHZorn_R58o8r-413" value="" style="shape=partialRectangle;html=1;whiteSpace=wrap;connectable=0;overflow=hidden;fillColor=none;top=0;left=0;bottom=0;right=0;pointerEvents=1;fontSize=70;" parent="YzsYslSZHZorn_R58o8r-409" vertex="1">
          <mxGeometry x="132" width="44" height="41" as="geometry">
            <mxRectangle width="44" height="41" as="alternateBounds" />
          </mxGeometry>
        </mxCell>
        <mxCell id="127" style="vsdxID=263;edgeStyle=none;dashed=1;dashPattern=12.00 6.00;startArrow=none;endArrow=open;startSize=5;endSize=5;spacingTop=0;spacingBottom=0;spacingLeft=0;spacingRight=0;verticalAlign=middle;html=1;labelBackgroundColor=#ffffff;rounded=0;" parent="1" edge="1">
          <mxGeometry relative="1" as="geometry">
            <Array as="points" />
            <mxPoint x="824" y="1865" as="sourcePoint" />
            <mxPoint x="824" y="2128" as="targetPoint" />
          </mxGeometry>
        </mxCell>
        <mxCell id="128" style="vsdxID=264;edgeStyle=none;dashed=1;dashPattern=12.00 6.00;startArrow=none;endArrow=open;startSize=5;endSize=5;spacingTop=0;spacingBottom=0;spacingLeft=0;spacingRight=0;verticalAlign=middle;html=1;labelBackgroundColor=#ffffff;rounded=0;" parent="1" edge="1">
          <mxGeometry relative="1" as="geometry">
            <Array as="points" />
            <mxPoint x="924" y="1865" as="sourcePoint" />
            <mxPoint x="924" y="2128" as="targetPoint" />
          </mxGeometry>
        </mxCell>
        <mxCell id="129" style="vsdxID=265;edgeStyle=none;dashed=1;dashPattern=12.00 6.00;startArrow=none;endArrow=open;startSize=5;endSize=5;spacingTop=0;spacingBottom=0;spacingLeft=0;spacingRight=0;verticalAlign=middle;html=1;labelBackgroundColor=#ffffff;rounded=0;" parent="1" edge="1">
          <mxGeometry relative="1" as="geometry">
            <Array as="points" />
            <mxPoint x="1024" y="1865" as="sourcePoint" />
            <mxPoint x="1024" y="2128" as="targetPoint" />
          </mxGeometry>
        </mxCell>
        <mxCell id="130" style="vsdxID=266;edgeStyle=none;dashed=1;dashPattern=12.00 6.00;startArrow=none;endArrow=open;startSize=5;endSize=5;spacingTop=0;spacingBottom=0;spacingLeft=0;spacingRight=0;verticalAlign=middle;html=1;labelBackgroundColor=#ffffff;rounded=0;" parent="1" edge="1">
          <mxGeometry relative="1" as="geometry">
            <Array as="points" />
            <mxPoint x="1164" y="1865" as="sourcePoint" />
            <mxPoint x="1164" y="2128" as="targetPoint" />
          </mxGeometry>
        </mxCell>
        <mxCell id="YzsYslSZHZorn_R58o8r-414" value="" style="shape=table;startSize=0;container=1;collapsible=0;childLayout=tableLayout;fontSize=70;" parent="1" vertex="1">
          <mxGeometry x="1320" y="1912" width="176" height="41" as="geometry" />
        </mxCell>
        <mxCell id="YzsYslSZHZorn_R58o8r-415" value="" style="shape=tableRow;horizontal=0;startSize=0;swimlaneHead=0;swimlaneBody=0;top=0;left=0;bottom=0;right=0;collapsible=0;dropTarget=0;fillColor=none;points=[[0,0.5],[1,0.5]];portConstraint=eastwest;fontSize=70;" parent="YzsYslSZHZorn_R58o8r-414" vertex="1">
          <mxGeometry width="176" height="41" as="geometry" />
        </mxCell>
        <mxCell id="YzsYslSZHZorn_R58o8r-416" value="" style="shape=partialRectangle;html=1;whiteSpace=wrap;connectable=0;overflow=hidden;fillColor=none;top=0;left=0;bottom=0;right=0;pointerEvents=1;fontSize=70;" parent="YzsYslSZHZorn_R58o8r-415" vertex="1">
          <mxGeometry width="44" height="41" as="geometry">
            <mxRectangle width="44" height="41" as="alternateBounds" />
          </mxGeometry>
        </mxCell>
        <mxCell id="YzsYslSZHZorn_R58o8r-417" value="" style="shape=partialRectangle;html=1;whiteSpace=wrap;connectable=0;overflow=hidden;fillColor=none;top=0;left=0;bottom=0;right=0;pointerEvents=1;fontSize=70;" parent="YzsYslSZHZorn_R58o8r-415" vertex="1">
          <mxGeometry x="44" width="44" height="41" as="geometry">
            <mxRectangle width="44" height="41" as="alternateBounds" />
          </mxGeometry>
        </mxCell>
        <mxCell id="YzsYslSZHZorn_R58o8r-418" value="" style="shape=partialRectangle;html=1;whiteSpace=wrap;connectable=0;overflow=hidden;fillColor=none;top=0;left=0;bottom=0;right=0;pointerEvents=1;fontSize=70;" parent="YzsYslSZHZorn_R58o8r-415" vertex="1">
          <mxGeometry x="88" width="44" height="41" as="geometry">
            <mxRectangle width="44" height="41" as="alternateBounds" />
          </mxGeometry>
        </mxCell>
        <mxCell id="YzsYslSZHZorn_R58o8r-419" value="" style="shape=partialRectangle;html=1;whiteSpace=wrap;connectable=0;overflow=hidden;fillColor=none;top=0;left=0;bottom=0;right=0;pointerEvents=1;fontSize=70;" parent="YzsYslSZHZorn_R58o8r-415" vertex="1">
          <mxGeometry x="132" width="44" height="41" as="geometry">
            <mxRectangle width="44" height="41" as="alternateBounds" />
          </mxGeometry>
        </mxCell>
        <mxCell id="YzsYslSZHZorn_R58o8r-420" value="" style="shape=table;startSize=0;container=1;collapsible=0;childLayout=tableLayout;fontSize=70;" parent="1" vertex="1">
          <mxGeometry x="1420" y="2016" width="176" height="41" as="geometry" />
        </mxCell>
        <mxCell id="YzsYslSZHZorn_R58o8r-421" value="" style="shape=tableRow;horizontal=0;startSize=0;swimlaneHead=0;swimlaneBody=0;top=0;left=0;bottom=0;right=0;collapsible=0;dropTarget=0;fillColor=none;points=[[0,0.5],[1,0.5]];portConstraint=eastwest;fontSize=70;" parent="YzsYslSZHZorn_R58o8r-420" vertex="1">
          <mxGeometry width="176" height="41" as="geometry" />
        </mxCell>
        <mxCell id="YzsYslSZHZorn_R58o8r-422" value="" style="shape=partialRectangle;html=1;whiteSpace=wrap;connectable=0;overflow=hidden;fillColor=none;top=0;left=0;bottom=0;right=0;pointerEvents=1;fontSize=70;" parent="YzsYslSZHZorn_R58o8r-421" vertex="1">
          <mxGeometry width="44" height="41" as="geometry">
            <mxRectangle width="44" height="41" as="alternateBounds" />
          </mxGeometry>
        </mxCell>
        <mxCell id="YzsYslSZHZorn_R58o8r-423" value="" style="shape=partialRectangle;html=1;whiteSpace=wrap;connectable=0;overflow=hidden;fillColor=none;top=0;left=0;bottom=0;right=0;pointerEvents=1;fontSize=70;" parent="YzsYslSZHZorn_R58o8r-421" vertex="1">
          <mxGeometry x="44" width="44" height="41" as="geometry">
            <mxRectangle width="44" height="41" as="alternateBounds" />
          </mxGeometry>
        </mxCell>
        <mxCell id="YzsYslSZHZorn_R58o8r-424" value="" style="shape=partialRectangle;html=1;whiteSpace=wrap;connectable=0;overflow=hidden;fillColor=none;top=0;left=0;bottom=0;right=0;pointerEvents=1;fontSize=70;" parent="YzsYslSZHZorn_R58o8r-421" vertex="1">
          <mxGeometry x="88" width="44" height="41" as="geometry">
            <mxRectangle width="44" height="41" as="alternateBounds" />
          </mxGeometry>
        </mxCell>
        <mxCell id="YzsYslSZHZorn_R58o8r-425" value="" style="shape=partialRectangle;html=1;whiteSpace=wrap;connectable=0;overflow=hidden;fillColor=none;top=0;left=0;bottom=0;right=0;pointerEvents=1;fontSize=70;" parent="YzsYslSZHZorn_R58o8r-421" vertex="1">
          <mxGeometry x="132" width="44" height="41" as="geometry">
            <mxRectangle width="44" height="41" as="alternateBounds" />
          </mxGeometry>
        </mxCell>
        <mxCell id="YzsYslSZHZorn_R58o8r-426" value="" style="shape=table;startSize=0;container=1;collapsible=0;childLayout=tableLayout;fontSize=70;" parent="1" vertex="1">
          <mxGeometry x="1540" y="1912" width="176" height="41" as="geometry" />
        </mxCell>
        <mxCell id="YzsYslSZHZorn_R58o8r-427" value="" style="shape=tableRow;horizontal=0;startSize=0;swimlaneHead=0;swimlaneBody=0;top=0;left=0;bottom=0;right=0;collapsible=0;dropTarget=0;fillColor=none;points=[[0,0.5],[1,0.5]];portConstraint=eastwest;fontSize=70;" parent="YzsYslSZHZorn_R58o8r-426" vertex="1">
          <mxGeometry width="176" height="41" as="geometry" />
        </mxCell>
        <mxCell id="YzsYslSZHZorn_R58o8r-428" value="" style="shape=partialRectangle;html=1;whiteSpace=wrap;connectable=0;overflow=hidden;fillColor=none;top=0;left=0;bottom=0;right=0;pointerEvents=1;fontSize=70;" parent="YzsYslSZHZorn_R58o8r-427" vertex="1">
          <mxGeometry width="44" height="41" as="geometry">
            <mxRectangle width="44" height="41" as="alternateBounds" />
          </mxGeometry>
        </mxCell>
        <mxCell id="YzsYslSZHZorn_R58o8r-429" value="" style="shape=partialRectangle;html=1;whiteSpace=wrap;connectable=0;overflow=hidden;fillColor=none;top=0;left=0;bottom=0;right=0;pointerEvents=1;fontSize=70;" parent="YzsYslSZHZorn_R58o8r-427" vertex="1">
          <mxGeometry x="44" width="44" height="41" as="geometry">
            <mxRectangle width="44" height="41" as="alternateBounds" />
          </mxGeometry>
        </mxCell>
        <mxCell id="YzsYslSZHZorn_R58o8r-430" value="" style="shape=partialRectangle;html=1;whiteSpace=wrap;connectable=0;overflow=hidden;fillColor=none;top=0;left=0;bottom=0;right=0;pointerEvents=1;fontSize=70;" parent="YzsYslSZHZorn_R58o8r-427" vertex="1">
          <mxGeometry x="88" width="44" height="41" as="geometry">
            <mxRectangle width="44" height="41" as="alternateBounds" />
          </mxGeometry>
        </mxCell>
        <mxCell id="YzsYslSZHZorn_R58o8r-431" value="" style="shape=partialRectangle;html=1;whiteSpace=wrap;connectable=0;overflow=hidden;fillColor=none;top=0;left=0;bottom=0;right=0;pointerEvents=1;fontSize=70;" parent="YzsYslSZHZorn_R58o8r-427" vertex="1">
          <mxGeometry x="132" width="44" height="41" as="geometry">
            <mxRectangle width="44" height="41" as="alternateBounds" />
          </mxGeometry>
        </mxCell>
        <mxCell id="YzsYslSZHZorn_R58o8r-432" value="" style="shape=table;startSize=0;container=1;collapsible=0;childLayout=tableLayout;fontSize=70;" parent="1" vertex="1">
          <mxGeometry x="1630" y="2016" width="176" height="41" as="geometry" />
        </mxCell>
        <mxCell id="YzsYslSZHZorn_R58o8r-433" value="" style="shape=tableRow;horizontal=0;startSize=0;swimlaneHead=0;swimlaneBody=0;top=0;left=0;bottom=0;right=0;collapsible=0;dropTarget=0;fillColor=none;points=[[0,0.5],[1,0.5]];portConstraint=eastwest;fontSize=70;" parent="YzsYslSZHZorn_R58o8r-432" vertex="1">
          <mxGeometry width="176" height="41" as="geometry" />
        </mxCell>
        <mxCell id="YzsYslSZHZorn_R58o8r-434" value="" style="shape=partialRectangle;html=1;whiteSpace=wrap;connectable=0;overflow=hidden;fillColor=none;top=0;left=0;bottom=0;right=0;pointerEvents=1;fontSize=70;" parent="YzsYslSZHZorn_R58o8r-433" vertex="1">
          <mxGeometry width="44" height="41" as="geometry">
            <mxRectangle width="44" height="41" as="alternateBounds" />
          </mxGeometry>
        </mxCell>
        <mxCell id="YzsYslSZHZorn_R58o8r-435" value="" style="shape=partialRectangle;html=1;whiteSpace=wrap;connectable=0;overflow=hidden;fillColor=none;top=0;left=0;bottom=0;right=0;pointerEvents=1;fontSize=70;" parent="YzsYslSZHZorn_R58o8r-433" vertex="1">
          <mxGeometry x="44" width="44" height="41" as="geometry">
            <mxRectangle width="44" height="41" as="alternateBounds" />
          </mxGeometry>
        </mxCell>
        <mxCell id="YzsYslSZHZorn_R58o8r-436" value="" style="shape=partialRectangle;html=1;whiteSpace=wrap;connectable=0;overflow=hidden;fillColor=none;top=0;left=0;bottom=0;right=0;pointerEvents=1;fontSize=70;" parent="YzsYslSZHZorn_R58o8r-433" vertex="1">
          <mxGeometry x="88" width="44" height="41" as="geometry">
            <mxRectangle width="44" height="41" as="alternateBounds" />
          </mxGeometry>
        </mxCell>
        <mxCell id="YzsYslSZHZorn_R58o8r-437" value="" style="shape=partialRectangle;html=1;whiteSpace=wrap;connectable=0;overflow=hidden;fillColor=none;top=0;left=0;bottom=0;right=0;pointerEvents=1;fontSize=70;" parent="YzsYslSZHZorn_R58o8r-433" vertex="1">
          <mxGeometry x="132" width="44" height="41" as="geometry">
            <mxRectangle width="44" height="41" as="alternateBounds" />
          </mxGeometry>
        </mxCell>
        <mxCell id="YzsYslSZHZorn_R58o8r-438" style="vsdxID=263;edgeStyle=none;dashed=1;dashPattern=12.00 6.00;startArrow=none;endArrow=open;startSize=5;endSize=5;spacingTop=0;spacingBottom=0;spacingLeft=0;spacingRight=0;verticalAlign=middle;html=1;labelBackgroundColor=#ffffff;rounded=0;" parent="1" edge="1">
          <mxGeometry relative="1" as="geometry">
            <Array as="points" />
            <mxPoint x="1404" y="1866.9999999999995" as="sourcePoint" />
            <mxPoint x="1404" y="2130" as="targetPoint" />
          </mxGeometry>
        </mxCell>
        <mxCell id="YzsYslSZHZorn_R58o8r-439" style="vsdxID=264;edgeStyle=none;dashed=1;dashPattern=12.00 6.00;startArrow=none;endArrow=open;startSize=5;endSize=5;spacingTop=0;spacingBottom=0;spacingLeft=0;spacingRight=0;verticalAlign=middle;html=1;labelBackgroundColor=#ffffff;rounded=0;" parent="1" edge="1">
          <mxGeometry relative="1" as="geometry">
            <Array as="points" />
            <mxPoint x="1504" y="1866.9999999999995" as="sourcePoint" />
            <mxPoint x="1504" y="2130" as="targetPoint" />
          </mxGeometry>
        </mxCell>
        <mxCell id="YzsYslSZHZorn_R58o8r-440" style="vsdxID=265;edgeStyle=none;dashed=1;dashPattern=12.00 6.00;startArrow=none;endArrow=open;startSize=5;endSize=5;spacingTop=0;spacingBottom=0;spacingLeft=0;spacingRight=0;verticalAlign=middle;html=1;labelBackgroundColor=#ffffff;rounded=0;" parent="1" edge="1">
          <mxGeometry relative="1" as="geometry">
            <Array as="points" />
            <mxPoint x="1604" y="1866.9999999999995" as="sourcePoint" />
            <mxPoint x="1604" y="2130" as="targetPoint" />
          </mxGeometry>
        </mxCell>
        <mxCell id="YzsYslSZHZorn_R58o8r-444" value="" style="group" parent="1" vertex="1" connectable="0">
          <mxGeometry x="2092" y="1070" width="302" height="240" as="geometry" />
        </mxCell>
        <mxCell id="18" style="vsdxID=58;fillColor=#2d6b22;gradientColor=none;shape=stencil(nZBLDoAgDERP0z3SIyjew0SURgSD+Lu9kMZoXLhwN9O+tukAlrNpJg1SzDH4QW/URgNYgZTkjA4UkwJUgGXng+6DX1zLfmoymdXo17xh5zmRJ6Q42BWCfc2oJfdAr+Yv+AP9Cb7OJ3H/2JG1HNGz/84klThPVCc=);points=[[1,0.5,0],[0.5,0,0],[0.5,0.5,0],[0.5,0.5,0]];labelBackgroundColor=none;rounded=0;html=1;whiteSpace=wrap;" parent="YzsYslSZHZorn_R58o8r-444" vertex="1">
          <mxGeometry width="68" height="240" as="geometry" />
        </mxCell>
        <mxCell id="21" style="vsdxID=77;fillColor=#2D6B22;gradientColor=none;shape=stencil(nZBLDoAgDERP0z3SIyjew0SURgSD+Lu9kMZoXLhwN9O+tukAlrNpJg1SzDH4QW/URgNYgZTkjA4UkwJUgGXng+6DX1zLfmoymdXo17xh5zmRJ6Q42BWCfc2oJfdAr+Yv+AP9Cb7OJ3H/2JG1HNGz/84klThPVCc=);points=[[1,0.5,0],[0.5,0,0],[0.5,0.5,0],[0.5,0.5,0]];labelBackgroundColor=none;rounded=0;html=1;whiteSpace=wrap;" parent="YzsYslSZHZorn_R58o8r-444" vertex="1">
          <mxGeometry x="68" width="68" height="240" as="geometry" />
        </mxCell>
        <mxCell id="22" style="vsdxID=121;fillColor=#2D6B22;gradientColor=none;shape=stencil(nZBLDoAgDERP0z3SIyjew0SURgSD+Lu9kMZoXLhwN9O+tukAlrNpJg1SzDH4QW/URgNYgZTkjA4UkwJUgGXng+6DX1zLfmoymdXo17xh5zmRJ6Q42BWCfc2oJfdAr+Yv+AP9Cb7OJ3H/2JG1HNGz/84klThPVCc=);points=[[1,0.5,0],[0.5,0,0],[0.5,0.5,0],[0.5,0.5,0]];labelBackgroundColor=none;rounded=0;html=1;whiteSpace=wrap;" parent="YzsYslSZHZorn_R58o8r-444" vertex="1">
          <mxGeometry x="234" width="68" height="240" as="geometry" />
        </mxCell>
        <mxCell id="23" value="&lt;div style=&quot;font-size: 1px&quot;&gt;&lt;font style=&quot;font-size:50.8px;font-family:SimSun;color:#000000;direction:ltr;letter-spacing:0px;line-height:120%;opacity:1&quot;&gt;&lt;b&gt;...&lt;br/&gt;&lt;/b&gt;&lt;/font&gt;&lt;/div&gt;" style="verticalAlign=middle;align=center;vsdxID=124;fillColor=none;gradientColor=none;shape=stencil(nZBLDoAgDERP0z3SIyjew0SURgSD+Lu9kMZoXLhwN9O+tukAlrNpJg1SzDH4QW/URgNYgZTkjA4UkwJUgGXng+6DX1zLfmoymdXo17xh5zmRJ6Q42BWCfc2oJfdAr+Yv+AP9Cb7OJ3H/2JG1HNGz/84klThPVCc=);strokeColor=none;points=[];labelBackgroundColor=none;rounded=0;html=1;whiteSpace=wrap;" parent="YzsYslSZHZorn_R58o8r-444" vertex="1">
          <mxGeometry x="136" y="89.33753943217667" width="114" height="19.684542586750787" as="geometry" />
        </mxCell>
        <mxCell id="YzsYslSZHZorn_R58o8r-446" style="edgeStyle=orthogonalEdgeStyle;curved=1;orthogonalLoop=1;jettySize=auto;html=1;exitX=1;exitY=0.5;exitDx=0;exitDy=0;entryX=0.5;entryY=0;entryDx=0;entryDy=0;entryPerimeter=0;dashed=1;strokeWidth=4;fontSize=70;" parent="1" source="YzsYslSZHZorn_R58o8r-154" target="18" edge="1">
          <mxGeometry relative="1" as="geometry">
            <Array as="points">
              <mxPoint x="906" y="1120" />
              <mxPoint x="2010" y="1120" />
              <mxPoint x="2010" y="1050" />
              <mxPoint x="2126" y="1050" />
            </Array>
          </mxGeometry>
        </mxCell>
        <mxCell id="YzsYslSZHZorn_R58o8r-447" style="edgeStyle=orthogonalEdgeStyle;curved=1;orthogonalLoop=1;jettySize=auto;html=1;exitX=1;exitY=0.5;exitDx=0;exitDy=0;entryX=0.567;entryY=1.003;entryDx=0;entryDy=0;entryPerimeter=0;dashed=1;strokeWidth=4;fontSize=70;" parent="1" source="YzsYslSZHZorn_R58o8r-166" target="21" edge="1">
          <mxGeometry relative="1" as="geometry">
            <Array as="points">
              <mxPoint x="1008" y="1220" />
              <mxPoint x="2010" y="1220" />
              <mxPoint x="2010" y="1330" />
              <mxPoint x="2199" y="1330" />
            </Array>
          </mxGeometry>
        </mxCell>
        <mxCell id="YzsYslSZHZorn_R58o8r-449" value="" style="group" parent="1" vertex="1" connectable="0">
          <mxGeometry x="2090" y="1500" width="302" height="240" as="geometry" />
        </mxCell>
        <mxCell id="YzsYslSZHZorn_R58o8r-450" style="vsdxID=58;fillColor=#529D72;gradientColor=none;shape=stencil(nZBLDoAgDERP0z3SIyjew0SURgSD+Lu9kMZoXLhwN9O+tukAlrNpJg1SzDH4QW/URgNYgZTkjA4UkwJUgGXng+6DX1zLfmoymdXo17xh5zmRJ6Q42BWCfc2oJfdAr+Yv+AP9Cb7OJ3H/2JG1HNGz/84klThPVCc=);points=[[1,0.5,0],[0.5,0,0],[0.5,0.5,0],[0.5,0.5,0]];labelBackgroundColor=none;rounded=0;html=1;whiteSpace=wrap;" parent="YzsYslSZHZorn_R58o8r-449" vertex="1">
          <mxGeometry width="68" height="240" as="geometry" />
        </mxCell>
        <mxCell id="YzsYslSZHZorn_R58o8r-451" style="vsdxID=77;fillColor=#529d72;gradientColor=none;shape=stencil(nZBLDoAgDERP0z3SIyjew0SURgSD+Lu9kMZoXLhwN9O+tukAlrNpJg1SzDH4QW/URgNYgZTkjA4UkwJUgGXng+6DX1zLfmoymdXo17xh5zmRJ6Q42BWCfc2oJfdAr+Yv+AP9Cb7OJ3H/2JG1HNGz/84klThPVCc=);points=[[1,0.5,0],[0.5,0,0],[0.5,0.5,0],[0.5,0.5,0]];labelBackgroundColor=none;rounded=0;html=1;whiteSpace=wrap;" parent="YzsYslSZHZorn_R58o8r-449" vertex="1">
          <mxGeometry x="68" width="68" height="240" as="geometry" />
        </mxCell>
        <mxCell id="YzsYslSZHZorn_R58o8r-452" style="vsdxID=121;fillColor=#529D72;gradientColor=none;shape=stencil(nZBLDoAgDERP0z3SIyjew0SURgSD+Lu9kMZoXLhwN9O+tukAlrNpJg1SzDH4QW/URgNYgZTkjA4UkwJUgGXng+6DX1zLfmoymdXo17xh5zmRJ6Q42BWCfc2oJfdAr+Yv+AP9Cb7OJ3H/2JG1HNGz/84klThPVCc=);points=[[1,0.5,0],[0.5,0,0],[0.5,0.5,0],[0.5,0.5,0]];labelBackgroundColor=none;rounded=0;html=1;whiteSpace=wrap;" parent="YzsYslSZHZorn_R58o8r-449" vertex="1">
          <mxGeometry x="234" width="68" height="240" as="geometry" />
        </mxCell>
        <mxCell id="YzsYslSZHZorn_R58o8r-453" value="&lt;div style=&quot;font-size: 1px&quot;&gt;&lt;font style=&quot;font-size:50.8px;font-family:SimSun;color:#000000;direction:ltr;letter-spacing:0px;line-height:120%;opacity:1&quot;&gt;&lt;b&gt;...&lt;br/&gt;&lt;/b&gt;&lt;/font&gt;&lt;/div&gt;" style="verticalAlign=middle;align=center;vsdxID=124;fillColor=none;gradientColor=none;shape=stencil(nZBLDoAgDERP0z3SIyjew0SURgSD+Lu9kMZoXLhwN9O+tukAlrNpJg1SzDH4QW/URgNYgZTkjA4UkwJUgGXng+6DX1zLfmoymdXo17xh5zmRJ6Q42BWCfc2oJfdAr+Yv+AP9Cb7OJ3H/2JG1HNGz/84klThPVCc=);strokeColor=none;points=[];labelBackgroundColor=none;rounded=0;html=1;whiteSpace=wrap;" parent="YzsYslSZHZorn_R58o8r-449" vertex="1">
          <mxGeometry x="136" y="89.33753943217667" width="114" height="19.684542586750787" as="geometry" />
        </mxCell>
        <mxCell id="YzsYslSZHZorn_R58o8r-454" value="" style="group" parent="1" vertex="1" connectable="0">
          <mxGeometry x="2090" y="1950" width="302" height="240" as="geometry" />
        </mxCell>
        <mxCell id="YzsYslSZHZorn_R58o8r-455" style="vsdxID=58;fillColor=#C5F9D7;gradientColor=none;shape=stencil(nZBLDoAgDERP0z3SIyjew0SURgSD+Lu9kMZoXLhwN9O+tukAlrNpJg1SzDH4QW/URgNYgZTkjA4UkwJUgGXng+6DX1zLfmoymdXo17xh5zmRJ6Q42BWCfc2oJfdAr+Yv+AP9Cb7OJ3H/2JG1HNGz/84klThPVCc=);points=[[1,0.5,0],[0.5,0,0],[0.5,0.5,0],[0.5,0.5,0]];labelBackgroundColor=none;rounded=0;html=1;whiteSpace=wrap;" parent="YzsYslSZHZorn_R58o8r-454" vertex="1">
          <mxGeometry width="68" height="240" as="geometry" />
        </mxCell>
        <mxCell id="YzsYslSZHZorn_R58o8r-456" style="vsdxID=77;fillColor=#C5F9D7;gradientColor=none;shape=stencil(nZBLDoAgDERP0z3SIyjew0SURgSD+Lu9kMZoXLhwN9O+tukAlrNpJg1SzDH4QW/URgNYgZTkjA4UkwJUgGXng+6DX1zLfmoymdXo17xh5zmRJ6Q42BWCfc2oJfdAr+Yv+AP9Cb7OJ3H/2JG1HNGz/84klThPVCc=);points=[[1,0.5,0],[0.5,0,0],[0.5,0.5,0],[0.5,0.5,0]];labelBackgroundColor=none;rounded=0;html=1;whiteSpace=wrap;" parent="YzsYslSZHZorn_R58o8r-454" vertex="1">
          <mxGeometry x="68" width="68" height="240" as="geometry" />
        </mxCell>
        <mxCell id="YzsYslSZHZorn_R58o8r-457" style="vsdxID=121;fillColor=#c5f9d7;gradientColor=none;shape=stencil(nZBLDoAgDERP0z3SIyjew0SURgSD+Lu9kMZoXLhwN9O+tukAlrNpJg1SzDH4QW/URgNYgZTkjA4UkwJUgGXng+6DX1zLfmoymdXo17xh5zmRJ6Q42BWCfc2oJfdAr+Yv+AP9Cb7OJ3H/2JG1HNGz/84klThPVCc=);points=[[1,0.5,0],[0.5,0,0],[0.5,0.5,0],[0.5,0.5,0]];labelBackgroundColor=none;rounded=0;html=1;whiteSpace=wrap;" parent="YzsYslSZHZorn_R58o8r-454" vertex="1">
          <mxGeometry x="234" width="68" height="240" as="geometry" />
        </mxCell>
        <mxCell id="YzsYslSZHZorn_R58o8r-458" value="&lt;div style=&quot;font-size: 1px&quot;&gt;&lt;font style=&quot;font-size:50.8px;font-family:SimSun;color:#000000;direction:ltr;letter-spacing:0px;line-height:120%;opacity:1&quot;&gt;&lt;b&gt;...&lt;br/&gt;&lt;/b&gt;&lt;/font&gt;&lt;/div&gt;" style="verticalAlign=middle;align=center;vsdxID=124;fillColor=none;gradientColor=none;shape=stencil(nZBLDoAgDERP0z3SIyjew0SURgSD+Lu9kMZoXLhwN9O+tukAlrNpJg1SzDH4QW/URgNYgZTkjA4UkwJUgGXng+6DX1zLfmoymdXo17xh5zmRJ6Q42BWCfc2oJfdAr+Yv+AP9Cb7OJ3H/2JG1HNGz/84klThPVCc=);strokeColor=none;points=[];labelBackgroundColor=none;rounded=0;html=1;whiteSpace=wrap;" parent="YzsYslSZHZorn_R58o8r-454" vertex="1">
          <mxGeometry x="136" y="89.33753943217667" width="114" height="19.684542586750787" as="geometry" />
        </mxCell>
        <mxCell id="YzsYslSZHZorn_R58o8r-461" style="edgeStyle=orthogonalEdgeStyle;curved=1;orthogonalLoop=1;jettySize=auto;html=1;exitX=1;exitY=0.5;exitDx=0;exitDy=0;dashed=1;strokeWidth=4;fontSize=70;" parent="1" source="YzsYslSZHZorn_R58o8r-361" edge="1">
          <mxGeometry relative="1" as="geometry">
            <mxPoint x="2358" y="1750" as="targetPoint" />
            <Array as="points">
              <mxPoint x="1960" y="1548" />
              <mxPoint x="1960" y="1840" />
              <mxPoint x="2358" y="1840" />
            </Array>
          </mxGeometry>
        </mxCell>
        <mxCell id="YzsYslSZHZorn_R58o8r-463" style="edgeStyle=orthogonalEdgeStyle;curved=1;orthogonalLoop=1;jettySize=auto;html=1;exitX=0;exitY=0.5;exitDx=0;exitDy=0;entryX=0.593;entryY=1.004;entryDx=0;entryDy=0;entryPerimeter=0;dashed=1;strokeWidth=4;fontSize=70;" parent="1" source="YzsYslSZHZorn_R58o8r-391" target="YzsYslSZHZorn_R58o8r-455" edge="1">
          <mxGeometry relative="1" as="geometry">
            <Array as="points">
              <mxPoint x="720" y="1930" />
              <mxPoint x="720" y="2260" />
              <mxPoint x="2130" y="2260" />
            </Array>
          </mxGeometry>
        </mxCell>
        <mxCell id="YzsYslSZHZorn_R58o8r-464" style="edgeStyle=orthogonalEdgeStyle;curved=1;orthogonalLoop=1;jettySize=auto;html=1;exitX=1;exitY=0.5;exitDx=0;exitDy=0;dashed=1;strokeWidth=4;fontSize=70;entryX=0.5;entryY=0;entryDx=0;entryDy=0;entryPerimeter=0;" parent="1" source="YzsYslSZHZorn_R58o8r-409" target="YzsYslSZHZorn_R58o8r-456" edge="1">
          <mxGeometry relative="1" as="geometry">
            <Array as="points">
              <mxPoint x="1260" y="2035" />
              <mxPoint x="1260" y="2180" />
              <mxPoint x="1930" y="2180" />
              <mxPoint x="1930" y="1920" />
              <mxPoint x="2192" y="1920" />
            </Array>
          </mxGeometry>
        </mxCell>
        <mxCell id="YzsYslSZHZorn_R58o8r-465" style="edgeStyle=orthogonalEdgeStyle;curved=1;orthogonalLoop=1;jettySize=auto;html=1;exitX=1;exitY=0.5;exitDx=0;exitDy=0;entryX=0.5;entryY=0;entryDx=0;entryDy=0;entryPerimeter=0;dashed=1;strokeWidth=4;fontSize=70;" parent="1" source="YzsYslSZHZorn_R58o8r-433" target="YzsYslSZHZorn_R58o8r-457" edge="1">
          <mxGeometry relative="1" as="geometry">
            <Array as="points">
              <mxPoint x="1900" y="2037" />
              <mxPoint x="1900" y="1890" />
              <mxPoint x="2360" y="1890" />
              <mxPoint x="2360" y="1950" />
            </Array>
          </mxGeometry>
        </mxCell>
        <mxCell id="YzsYslSZHZorn_R58o8r-467" style="edgeStyle=orthogonalEdgeStyle;curved=1;orthogonalLoop=1;jettySize=auto;html=1;exitX=1;exitY=0.5;exitDx=0;exitDy=0;dashed=1;strokeWidth=4;fontSize=70;entryX=0.506;entryY=1.001;entryDx=0;entryDy=0;entryPerimeter=0;" parent="1" source="YzsYslSZHZorn_R58o8r-320" target="22" edge="1">
          <mxGeometry relative="1" as="geometry">
            <Array as="points">
              <mxPoint x="1980" y="1271" />
              <mxPoint x="1980" y="1360" />
              <mxPoint x="2360" y="1360" />
            </Array>
          </mxGeometry>
        </mxCell>
        <mxCell id="YzsYslSZHZorn_R58o8r-468" style="edgeStyle=orthogonalEdgeStyle;curved=1;orthogonalLoop=1;jettySize=auto;html=1;exitX=1;exitY=0.5;exitDx=0;exitDy=0;dashed=1;strokeWidth=4;fontSize=70;" parent="1" source="YzsYslSZHZorn_R58o8r-367" edge="1">
          <mxGeometry relative="1" as="geometry">
            <mxPoint x="2130" y="1500" as="targetPoint" />
            <Array as="points">
              <mxPoint x="910" y="1471" />
              <mxPoint x="910" y="1440" />
              <mxPoint x="2130" y="1440" />
            </Array>
          </mxGeometry>
        </mxCell>
        <mxCell id="YzsYslSZHZorn_R58o8r-469" style="edgeStyle=orthogonalEdgeStyle;curved=1;orthogonalLoop=1;jettySize=auto;html=1;exitX=1;exitY=0.5;exitDx=0;exitDy=0;entryX=0.426;entryY=1.002;entryDx=0;entryDy=0;entryPerimeter=0;dashed=1;strokeWidth=4;fontSize=70;" parent="1" source="YzsYslSZHZorn_R58o8r-355" target="YzsYslSZHZorn_R58o8r-451" edge="1">
          <mxGeometry relative="1" as="geometry">
            <Array as="points">
              <mxPoint x="1980" y="1481" />
              <mxPoint x="1980" y="1760" />
              <mxPoint x="2187" y="1760" />
            </Array>
          </mxGeometry>
        </mxCell>
        <mxCell id="YzsYslSZHZorn_R58o8r-470" value="" style="shape=flexArrow;endArrow=classic;html=1;dashed=1;strokeWidth=4;fontSize=70;curved=1;endWidth=42.222222222222214;endSize=12.233333333333334;width=13.333333333333334;" parent="1" edge="1">
          <mxGeometry width="50" height="50" relative="1" as="geometry">
            <mxPoint x="2418" y="1640" as="sourcePoint" />
            <mxPoint x="2580" y="1640" as="targetPoint" />
            <Array as="points">
              <mxPoint x="2604" y="1640" />
            </Array>
          </mxGeometry>
        </mxCell>
        <mxCell id="YzsYslSZHZorn_R58o8r-506" value="" style="group" parent="1" vertex="1" connectable="0">
          <mxGeometry x="2599" y="1247" width="358" height="720.75" as="geometry" />
        </mxCell>
        <mxCell id="YzsYslSZHZorn_R58o8r-503" value="&lt;div style=&quot;font-size: 1px&quot;&gt;&lt;font style=&quot;font-size:50.8px;font-family:SimSun;color:#000000;direction:ltr;letter-spacing:0px;line-height:120%;opacity:1&quot;&gt;&lt;b&gt;...&lt;br/&gt;&lt;/b&gt;&lt;/font&gt;&lt;/div&gt;" style="verticalAlign=middle;align=center;vsdxID=124;fillColor=none;gradientColor=none;shape=stencil(nZBLDoAgDERP0z3SIyjew0SURgSD+Lu9kMZoXLhwN9O+tukAlrNpJg1SzDH4QW/URgNYgZTkjA4UkwJUgGXng+6DX1zLfmoymdXo17xh5zmRJ6Q42BWCfc2oJfdAr+Yv+AP9Cb7OJ3H/2JG1HNGz/84klThPVCc=);strokeColor=none;points=[];labelBackgroundColor=none;rounded=0;html=1;whiteSpace=wrap;" parent="YzsYslSZHZorn_R58o8r-506" vertex="1">
          <mxGeometry x="160" y="281" width="114" height="112" as="geometry" />
        </mxCell>
        <mxCell id="YzsYslSZHZorn_R58o8r-504" value="" style="group" parent="YzsYslSZHZorn_R58o8r-506" vertex="1" connectable="0">
          <mxGeometry x="290" y="0.25" width="68" height="720.5" as="geometry" />
        </mxCell>
        <mxCell id="YzsYslSZHZorn_R58o8r-500" style="vsdxID=58;fillColor=#2d6b22;gradientColor=none;shape=stencil(nZBLDoAgDERP0z3SIyjew0SURgSD+Lu9kMZoXLhwN9O+tukAlrNpJg1SzDH4QW/URgNYgZTkjA4UkwJUgGXng+6DX1zLfmoymdXo17xh5zmRJ6Q42BWCfc2oJfdAr+Yv+AP9Cb7OJ3H/2JG1HNGz/84klThPVCc=);points=[[1,0.5,0],[0.5,0,0],[0.5,0.5,0],[0.5,0.5,0]];labelBackgroundColor=none;rounded=0;html=1;whiteSpace=wrap;" parent="YzsYslSZHZorn_R58o8r-504" vertex="1">
          <mxGeometry width="68" height="240" as="geometry" />
        </mxCell>
        <mxCell id="YzsYslSZHZorn_R58o8r-501" style="vsdxID=58;fillColor=#529D72;gradientColor=none;shape=stencil(nZBLDoAgDERP0z3SIyjew0SURgSD+Lu9kMZoXLhwN9O+tukAlrNpJg1SzDH4QW/URgNYgZTkjA4UkwJUgGXng+6DX1zLfmoymdXo17xh5zmRJ6Q42BWCfc2oJfdAr+Yv+AP9Cb7OJ3H/2JG1HNGz/84klThPVCc=);points=[[1,0.5,0],[0.5,0,0],[0.5,0.5,0],[0.5,0.5,0]];labelBackgroundColor=none;rounded=0;html=1;whiteSpace=wrap;" parent="YzsYslSZHZorn_R58o8r-504" vertex="1">
          <mxGeometry y="240.5" width="68" height="240" as="geometry" />
        </mxCell>
        <mxCell id="YzsYslSZHZorn_R58o8r-502" style="vsdxID=58;fillColor=#C5F9D7;gradientColor=none;shape=stencil(nZBLDoAgDERP0z3SIyjew0SURgSD+Lu9kMZoXLhwN9O+tukAlrNpJg1SzDH4QW/URgNYgZTkjA4UkwJUgGXng+6DX1zLfmoymdXo17xh5zmRJ6Q42BWCfc2oJfdAr+Yv+AP9Cb7OJ3H/2JG1HNGz/84klThPVCc=);points=[[1,0.5,0],[0.5,0,0],[0.5,0.5,0],[0.5,0.5,0]];labelBackgroundColor=none;rounded=0;html=1;whiteSpace=wrap;" parent="YzsYslSZHZorn_R58o8r-504" vertex="1">
          <mxGeometry y="480.5" width="68" height="240" as="geometry" />
        </mxCell>
        <mxCell id="YzsYslSZHZorn_R58o8r-505" value="" style="group" parent="YzsYslSZHZorn_R58o8r-506" vertex="1" connectable="0">
          <mxGeometry width="138" height="720.5" as="geometry" />
        </mxCell>
        <mxCell id="YzsYslSZHZorn_R58o8r-494" style="vsdxID=58;fillColor=#2d6b22;gradientColor=none;shape=stencil(nZBLDoAgDERP0z3SIyjew0SURgSD+Lu9kMZoXLhwN9O+tukAlrNpJg1SzDH4QW/URgNYgZTkjA4UkwJUgGXng+6DX1zLfmoymdXo17xh5zmRJ6Q42BWCfc2oJfdAr+Yv+AP9Cb7OJ3H/2JG1HNGz/84klThPVCc=);points=[[1,0.5,0],[0.5,0,0],[0.5,0.5,0],[0.5,0.5,0]];labelBackgroundColor=none;rounded=0;html=1;whiteSpace=wrap;" parent="YzsYslSZHZorn_R58o8r-505" vertex="1">
          <mxGeometry width="68" height="240" as="geometry" />
        </mxCell>
        <mxCell id="YzsYslSZHZorn_R58o8r-495" style="vsdxID=58;fillColor=#529D72;gradientColor=none;shape=stencil(nZBLDoAgDERP0z3SIyjew0SURgSD+Lu9kMZoXLhwN9O+tukAlrNpJg1SzDH4QW/URgNYgZTkjA4UkwJUgGXng+6DX1zLfmoymdXo17xh5zmRJ6Q42BWCfc2oJfdAr+Yv+AP9Cb7OJ3H/2JG1HNGz/84klThPVCc=);points=[[1,0.5,0],[0.5,0,0],[0.5,0.5,0],[0.5,0.5,0]];labelBackgroundColor=none;rounded=0;html=1;whiteSpace=wrap;" parent="YzsYslSZHZorn_R58o8r-505" vertex="1">
          <mxGeometry y="240.5" width="68" height="240" as="geometry" />
        </mxCell>
        <mxCell id="YzsYslSZHZorn_R58o8r-496" style="vsdxID=58;fillColor=#C5F9D7;gradientColor=none;shape=stencil(nZBLDoAgDERP0z3SIyjew0SURgSD+Lu9kMZoXLhwN9O+tukAlrNpJg1SzDH4QW/URgNYgZTkjA4UkwJUgGXng+6DX1zLfmoymdXo17xh5zmRJ6Q42BWCfc2oJfdAr+Yv+AP9Cb7OJ3H/2JG1HNGz/84klThPVCc=);points=[[1,0.5,0],[0.5,0,0],[0.5,0.5,0],[0.5,0.5,0]];labelBackgroundColor=none;rounded=0;html=1;whiteSpace=wrap;" parent="YzsYslSZHZorn_R58o8r-505" vertex="1">
          <mxGeometry y="480.5" width="68" height="240" as="geometry" />
        </mxCell>
        <mxCell id="YzsYslSZHZorn_R58o8r-497" style="vsdxID=58;fillColor=#2d6b22;gradientColor=none;shape=stencil(nZBLDoAgDERP0z3SIyjew0SURgSD+Lu9kMZoXLhwN9O+tukAlrNpJg1SzDH4QW/URgNYgZTkjA4UkwJUgGXng+6DX1zLfmoymdXo17xh5zmRJ6Q42BWCfc2oJfdAr+Yv+AP9Cb7OJ3H/2JG1HNGz/84klThPVCc=);points=[[1,0.5,0],[0.5,0,0],[0.5,0.5,0],[0.5,0.5,0]];labelBackgroundColor=none;rounded=0;html=1;whiteSpace=wrap;" parent="YzsYslSZHZorn_R58o8r-505" vertex="1">
          <mxGeometry x="70" width="68" height="240" as="geometry" />
        </mxCell>
        <mxCell id="YzsYslSZHZorn_R58o8r-498" style="vsdxID=58;fillColor=#529D72;gradientColor=none;shape=stencil(nZBLDoAgDERP0z3SIyjew0SURgSD+Lu9kMZoXLhwN9O+tukAlrNpJg1SzDH4QW/URgNYgZTkjA4UkwJUgGXng+6DX1zLfmoymdXo17xh5zmRJ6Q42BWCfc2oJfdAr+Yv+AP9Cb7OJ3H/2JG1HNGz/84klThPVCc=);points=[[1,0.5,0],[0.5,0,0],[0.5,0.5,0],[0.5,0.5,0]];labelBackgroundColor=none;rounded=0;html=1;whiteSpace=wrap;" parent="YzsYslSZHZorn_R58o8r-505" vertex="1">
          <mxGeometry x="70" y="240.5" width="68" height="240" as="geometry" />
        </mxCell>
        <mxCell id="YzsYslSZHZorn_R58o8r-499" style="vsdxID=58;fillColor=#C5F9D7;gradientColor=none;shape=stencil(nZBLDoAgDERP0z3SIyjew0SURgSD+Lu9kMZoXLhwN9O+tukAlrNpJg1SzDH4QW/URgNYgZTkjA4UkwJUgGXng+6DX1zLfmoymdXo17xh5zmRJ6Q42BWCfc2oJfdAr+Yv+AP9Cb7OJ3H/2JG1HNGz/84klThPVCc=);points=[[1,0.5,0],[0.5,0,0],[0.5,0.5,0],[0.5,0.5,0]];labelBackgroundColor=none;rounded=0;html=1;whiteSpace=wrap;" parent="YzsYslSZHZorn_R58o8r-505" vertex="1">
          <mxGeometry x="70" y="480.5" width="68" height="240" as="geometry" />
        </mxCell>
        <mxCell id="YzsYslSZHZorn_R58o8r-482" style="vsdxID=121;fillColor=#336600;gradientColor=none;shape=stencil(nZBLDoAgDERP0z3SIyjew0SURgSD+Lu9kMZoXLhwN9O+tukAlrNpJg1SzDH4QW/URgNYgZTkjA4UkwJUgGXng+6DX1zLfmoymdXo17xh5zmRJ6Q42BWCfc2oJfdAr+Yv+AP9Cb7OJ3H/2JG1HNGz/84klThPVCc=);points=[[1,0.5,0],[0.5,0,0],[0.5,0.5,0],[0.5,0.5,0]];labelBackgroundColor=none;rounded=0;html=1;whiteSpace=wrap;" parent="1" vertex="1">
          <mxGeometry x="3393.24" y="1383.83" width="68" height="440" as="geometry" />
        </mxCell>
        <mxCell id="YzsYslSZHZorn_R58o8r-509" style="orthogonalLoop=1;jettySize=auto;html=1;exitX=1;exitY=0.5;exitDx=0;exitDy=0;strokeWidth=4;fontSize=70;rounded=0;" parent="1" source="YzsYslSZHZorn_R58o8r-136" target="YzsYslSZHZorn_R58o8r-482" edge="1">
          <mxGeometry relative="1" as="geometry" />
        </mxCell>
        <mxCell id="YzsYslSZHZorn_R58o8r-507" value="&lt;b&gt;&lt;font style=&quot;font-size: 70px;&quot;&gt;Concatenate&lt;/font&gt;&lt;/b&gt;" style="text;html=1;strokeColor=none;fillColor=none;align=center;verticalAlign=middle;whiteSpace=wrap;rounded=0;fontFamily=Times New Roman;fontSize=26;rotation=90;" parent="1" vertex="1">
          <mxGeometry x="2949" y="1350.5" width="234.5" height="30" as="geometry" />
        </mxCell>
        <mxCell id="YzsYslSZHZorn_R58o8r-513" style="edgeStyle=none;rounded=0;orthogonalLoop=1;jettySize=auto;html=1;exitX=1;exitY=0.5;exitDx=0;exitDy=0;exitPerimeter=0;strokeWidth=4;fontSize=70;" parent="1" source="YzsYslSZHZorn_R58o8r-501" edge="1">
          <mxGeometry relative="1" as="geometry">
            <mxPoint x="3159" y="1608" as="targetPoint" />
          </mxGeometry>
        </mxCell>
        <mxCell id="YzsYslSZHZorn_R58o8r-515" value="" style="shape=flexArrow;endArrow=classic;html=1;rounded=0;strokeWidth=4;fontFamily=Times New Roman;fontSize=70;dashed=1;endWidth=38.4;endSize=8.248000000000001;" parent="1" edge="1">
          <mxGeometry width="50" height="50" relative="1" as="geometry">
            <mxPoint x="1361.6" y="860" as="sourcePoint" />
            <mxPoint x="1361.6" y="960" as="targetPoint" />
            <Array as="points">
              <mxPoint x="1362" y="927" />
            </Array>
          </mxGeometry>
        </mxCell>
        <mxCell id="YzsYslSZHZorn_R58o8r-516" style="vsdxID=121;fillColor=#336600;gradientColor=none;shape=stencil(nZBLDoAgDERP0z3SIyjew0SURgSD+Lu9kMZoXLhwN9O+tukAlrNpJg1SzDH4QW/URgNYgZTkjA4UkwJUgGXng+6DX1zLfmoymdXo17xh5zmRJ6Q42BWCfc2oJfdAr+Yv+AP9Cb7OJ3H/2JG1HNGz/84klThPVCc=);points=[[1,0.5,0],[0.5,0,0],[0.5,0.5,0],[0.5,0.5,0]];labelBackgroundColor=none;rounded=0;html=1;whiteSpace=wrap;" parent="1" vertex="1">
          <mxGeometry x="3461.24" y="1383.83" width="68" height="440" as="geometry" />
        </mxCell>
        <mxCell id="YzsYslSZHZorn_R58o8r-519" style="edgeStyle=none;rounded=0;orthogonalLoop=1;jettySize=auto;html=1;exitX=1;exitY=0.5;exitDx=0;exitDy=0;exitPerimeter=0;dashed=1;strokeWidth=4;fontFamily=Times New Roman;fontSize=70;" parent="1" source="YzsYslSZHZorn_R58o8r-517" edge="1">
          <mxGeometry relative="1" as="geometry">
            <mxPoint x="3819" y="1604.6666666666665" as="targetPoint" />
          </mxGeometry>
        </mxCell>
        <mxCell id="YzsYslSZHZorn_R58o8r-517" style="vsdxID=121;fillColor=#336600;gradientColor=none;shape=stencil(nZBLDoAgDERP0z3SIyjew0SURgSD+Lu9kMZoXLhwN9O+tukAlrNpJg1SzDH4QW/URgNYgZTkjA4UkwJUgGXng+6DX1zLfmoymdXo17xh5zmRJ6Q42BWCfc2oJfdAr+Yv+AP9Cb7OJ3H/2JG1HNGz/84klThPVCc=);points=[[1,0.5,0],[0.5,0,0],[0.5,0.5,0],[0.5,0.5,0]];labelBackgroundColor=none;rounded=0;html=1;whiteSpace=wrap;" parent="1" vertex="1">
          <mxGeometry x="3629" y="1383.83" width="68" height="440" as="geometry" />
        </mxCell>
        <mxCell id="YzsYslSZHZorn_R58o8r-518" value="&lt;div style=&quot;font-size: 1px&quot;&gt;&lt;font style=&quot;font-size:50.8px;font-family:SimSun;color:#000000;direction:ltr;letter-spacing:0px;line-height:120%;opacity:1&quot;&gt;&lt;b&gt;...&lt;br/&gt;&lt;/b&gt;&lt;/font&gt;&lt;/div&gt;" style="verticalAlign=middle;align=center;vsdxID=124;fillColor=none;gradientColor=none;shape=stencil(nZBLDoAgDERP0z3SIyjew0SURgSD+Lu9kMZoXLhwN9O+tukAlrNpJg1SzDH4QW/URgNYgZTkjA4UkwJUgGXng+6DX1zLfmoymdXo17xh5zmRJ6Q42BWCfc2oJfdAr+Yv+AP9Cb7OJ3H/2JG1HNGz/84klThPVCc=);strokeColor=none;points=[];labelBackgroundColor=none;rounded=0;html=1;whiteSpace=wrap;" parent="1" vertex="1">
          <mxGeometry x="3529.24" y="1579.9975394321768" width="114" height="19.684542586750787" as="geometry" />
        </mxCell>
        <mxCell id="p7V_d1KcG1WyrkhYZJlb-139" style="edgeStyle=orthogonalEdgeStyle;rounded=0;orthogonalLoop=1;jettySize=auto;html=1;exitX=1;exitY=0.25;exitDx=0;exitDy=0;strokeWidth=3;dashed=1;" edge="1" parent="1" source="YzsYslSZHZorn_R58o8r-135">
          <mxGeometry relative="1" as="geometry">
            <mxPoint x="4060" y="1430.3333333333335" as="targetPoint" />
          </mxGeometry>
        </mxCell>
        <mxCell id="p7V_d1KcG1WyrkhYZJlb-140" style="edgeStyle=orthogonalEdgeStyle;rounded=0;orthogonalLoop=1;jettySize=auto;html=1;exitX=1;exitY=0.5;exitDx=0;exitDy=0;dashed=1;strokeWidth=3;" edge="1" parent="1" source="YzsYslSZHZorn_R58o8r-135">
          <mxGeometry relative="1" as="geometry">
            <mxPoint x="4070" y="1608.3846153846152" as="targetPoint" />
          </mxGeometry>
        </mxCell>
        <mxCell id="p7V_d1KcG1WyrkhYZJlb-141" style="rounded=0;orthogonalLoop=1;jettySize=auto;html=1;exitX=1;exitY=1;exitDx=0;exitDy=0;dashed=1;strokeWidth=3;" edge="1" parent="1" source="YzsYslSZHZorn_R58o8r-135">
          <mxGeometry relative="1" as="geometry">
            <mxPoint x="4070" y="1963" as="targetPoint" />
          </mxGeometry>
        </mxCell>
        <mxCell id="p7V_d1KcG1WyrkhYZJlb-142" style="edgeStyle=none;rounded=0;orthogonalLoop=1;jettySize=auto;html=1;exitX=1;exitY=0;exitDx=0;exitDy=0;dashed=1;strokeWidth=3;" edge="1" parent="1" source="YzsYslSZHZorn_R58o8r-135">
          <mxGeometry relative="1" as="geometry">
            <mxPoint x="4060" y="1253.2857142857142" as="targetPoint" />
          </mxGeometry>
        </mxCell>
        <mxCell id="p7V_d1KcG1WyrkhYZJlb-143" value="&lt;div style=&quot;font-size: 1px&quot;&gt;&lt;font style=&quot;font-size:50.8px;font-family:SimSun;color:#000000;direction:ltr;letter-spacing:0px;line-height:120%;opacity:1&quot;&gt;&lt;b&gt;...&lt;br/&gt;&lt;/b&gt;&lt;/font&gt;&lt;/div&gt;" style="verticalAlign=middle;align=center;vsdxID=124;fillColor=none;gradientColor=none;shape=stencil(nZBLDoAgDERP0z3SIyjew0SURgSD+Lu9kMZoXLhwN9O+tukAlrNpJg1SzDH4QW/URgNYgZTkjA4UkwJUgGXng+6DX1zLfmoymdXo17xh5zmRJ6Q42BWCfc2oJfdAr+Yv+AP9Cb7OJ3H/2JG1HNGz/84klThPVCc=);strokeColor=none;points=[];labelBackgroundColor=none;rounded=0;html=1;whiteSpace=wrap;rotation=90;" vertex="1" parent="1">
          <mxGeometry x="3960" y="1764.3175394321768" width="114" height="19.684542586750787" as="geometry" />
        </mxCell>
      </root>
    </mxGraphModel>
  </diagram>
</mxfile>
